<?xml version="1.0" encoding="utf-8" standalone="no"?>
<!DOCTYPE svg PUBLIC "-//W3C//DTD SVG 1.1//EN"
  "http://www.w3.org/Graphics/SVG/1.1/DTD/svg11.dtd">
<svg xmlns:xlink="http://www.w3.org/1999/xlink" width="684pt" height="257.115895pt" viewBox="0 0 684 257.115895" xmlns="http://www.w3.org/2000/svg" version="1.1">
 <metadata>
  <rdf:RDF xmlns:dc="http://purl.org/dc/elements/1.1/" xmlns:cc="http://creativecommons.org/ns#" xmlns:rdf="http://www.w3.org/1999/02/22-rdf-syntax-ns#">
   <cc:Work>
    <dc:type rdf:resource="http://purl.org/dc/dcmitype/StillImage"/>
    <dc:date>2026-04-23T00:05:20.780875</dc:date>
    <dc:format>image/svg+xml</dc:format>
    <dc:creator>
     <cc:Agent>
      <dc:title>Matplotlib v3.10.8, https://matplotlib.org/</dc:title>
     </cc:Agent>
    </dc:creator>
   </cc:Work>
  </rdf:RDF>
 </metadata>
 <defs>
  <style type="text/css">*{stroke-linejoin: round; stroke-linecap: butt}</style>
 </defs>
 <g id="figure_1">
  <g id="patch_1">
   <path d="M 0 257.115895 
L 684 257.115895 
L 684 0 
L 0 0 
z
" style="fill: #ffffff"/>
  </g>
  <g id="axes_1">
   <g id="line2d_1">
    <path d="M 73.871752 109.950409 
L 671.416712 109.950409 
" clip-path="url(#p4f7b20eb58)" style="fill: none; stroke: #000000; stroke-width: 2; stroke-linecap: square"/>
   </g>
   <g id="line2d_2">
    <path d="M 73.871752 163.783288 
L 671.416712 163.783288 
" clip-path="url(#p4f7b20eb58)" style="fill: none; stroke: #000000; stroke-width: 2; stroke-linecap: square"/>
   </g>
   <g id="line2d_3">
    <path d="M 73.871752 217.616167 
L 671.416712 217.616167 
" clip-path="url(#p4f7b20eb58)" style="fill: none; stroke: #000000; stroke-width: 2; stroke-linecap: square"/>
   </g>
   <g id="patch_2">
    <path d="M 68.488464 83.033969 
L -1277.333519 83.033969 
L -1277.333519 298.365486 
L 68.488464 298.365486 
z
" clip-path="url(#p4f7b20eb58)" style="fill: #ffffff; stroke: #ffffff; stroke-width: 1.5; stroke-linejoin: miter"/>
   </g>
   <g id="line2d_4">
    <path d="M 156.774386 163.783288 
L 156.774386 109.950409 
" clip-path="url(#p4f7b20eb58)" style="fill: none; stroke: #002d9c; stroke-width: 2; stroke-linecap: square"/>
   </g>
   <g id="line2d_5">
    <path d="M 264.440145 163.783288 
L 264.440145 109.950409 
" clip-path="url(#p4f7b20eb58)" style="fill: none; stroke: #002d9c; stroke-width: 2; stroke-linecap: square"/>
   </g>
   <g id="line2d_6">
    <path d="M 318.273024 217.616167 
L 318.273024 109.950409 
" clip-path="url(#p4f7b20eb58)" style="fill: none; stroke: #002d9c; stroke-width: 2; stroke-linecap: square"/>
   </g>
   <g id="line2d_7">
    <path d="M 425.938782 217.616167 
L 425.938782 109.950409 
" clip-path="url(#p4f7b20eb58)" style="fill: none; stroke: #002d9c; stroke-width: 2; stroke-linecap: square"/>
   </g>
   <g id="line2d_8">
    <path d="M 479.771662 217.616167 
L 479.771662 163.783288 
" clip-path="url(#p4f7b20eb58)" style="fill: none; stroke: #002d9c; stroke-width: 2; stroke-linecap: square"/>
   </g>
   <g id="line2d_9">
    <path d="M 587.43742 217.616167 
L 587.43742 163.783288 
" clip-path="url(#p4f7b20eb58)" style="fill: none; stroke: #002d9c; stroke-width: 2; stroke-linecap: square"/>
   </g>
   <g id="patch_3">
    <path d="M 85.445821 127.446094 
L 120.437192 127.446094 
L 120.437192 92.454723 
L 85.445821 92.454723 
z
" clip-path="url(#p4f7b20eb58)" style="fill: #fa4d56; stroke: #fa4d56; stroke-width: 1.5; stroke-linejoin: miter"/>
   </g>
   <g id="patch_4">
    <path d="M 85.445821 181.278974 
L 120.437192 181.278974 
L 120.437192 146.287602 
L 85.445821 146.287602 
z
" clip-path="url(#p4f7b20eb58)" style="fill: #fa4d56; stroke: #fa4d56; stroke-width: 1.5; stroke-linejoin: miter"/>
   </g>
   <g id="patch_5">
    <path d="M 85.445821 235.111853 
L 120.437192 235.111853 
L 120.437192 200.120481 
L 85.445821 200.120481 
z
" clip-path="url(#p4f7b20eb58)" style="fill: #fa4d56; stroke: #fa4d56; stroke-width: 1.5; stroke-linejoin: miter"/>
   </g>
   <g id="patch_6">
    <path d="M 156.774386 115.199114 
C 158.166359 115.199114 159.501508 114.646078 160.485781 113.661804 
C 161.470055 112.67753 162.023092 111.342382 162.023092 109.950409 
C 162.023092 108.558436 161.470055 107.223287 160.485781 106.239013 
C 159.501508 105.25474 158.166359 104.701703 156.774386 104.701703 
C 155.382413 104.701703 154.047264 105.25474 153.062991 106.239013 
C 152.078717 107.223287 151.52568 108.558436 151.52568 109.950409 
C 151.52568 111.342382 152.078717 112.67753 153.062991 113.661804 
C 154.047264 114.646078 155.382413 115.199114 156.774386 115.199114 
z
" clip-path="url(#p4f7b20eb58)" style="fill: #002d9c; stroke: #002d9c; stroke-width: 1.5; stroke-linejoin: miter"/>
   </g>
   <g id="patch_7">
    <path d="M 156.774386 176.030268 
C 160.022323 176.030268 163.13767 174.739849 165.434309 172.443211 
C 167.730947 170.146572 169.021366 167.031225 169.021366 163.783288 
C 169.021366 160.535351 167.730947 157.420004 165.434309 155.123365 
C 163.13767 152.826727 160.022323 151.536308 156.774386 151.536308 
C 153.526449 151.536308 150.411102 152.826727 148.114463 155.123365 
C 145.817825 157.420004 144.527406 160.535351 144.527406 163.783288 
C 144.527406 167.031225 145.817825 170.146572 148.114463 172.443211 
C 150.411102 174.739849 153.526449 176.030268 156.774386 176.030268 
z
" clip-path="url(#p4f7b20eb58)" style="fill: #002d9c; stroke: #002d9c; stroke-width: 2; stroke-linejoin: miter"/>
   </g>
   <g id="patch_8">
    <path d="M 193.111579 181.278974 
L 228.102951 181.278974 
L 228.102951 146.287602 
L 193.111579 146.287602 
z
" clip-path="url(#p4f7b20eb58)" style="fill: #33b1ff; stroke: #33b1ff; stroke-width: 1.5; stroke-linejoin: miter"/>
   </g>
   <g id="patch_9">
    <path d="M 264.440145 115.199114 
C 265.832118 115.199114 267.167266 114.646078 268.15154 113.661804 
C 269.135814 112.67753 269.68885 111.342382 269.68885 109.950409 
C 269.68885 108.558436 269.135814 107.223287 268.15154 106.239013 
C 267.167266 105.25474 265.832118 104.701703 264.440145 104.701703 
C 263.048172 104.701703 261.713023 105.25474 260.728749 106.239013 
C 259.744476 107.223287 259.191439 108.558436 259.191439 109.950409 
C 259.191439 111.342382 259.744476 112.67753 260.728749 113.661804 
C 261.713023 114.646078 263.048172 115.199114 264.440145 115.199114 
z
" clip-path="url(#p4f7b20eb58)" style="fill: #002d9c; stroke: #002d9c; stroke-width: 1.5; stroke-linejoin: miter"/>
   </g>
   <g id="patch_10">
    <path d="M 264.440145 176.030268 
C 267.688082 176.030268 270.803429 174.739849 273.100067 172.443211 
C 275.396706 170.146572 276.687125 167.031225 276.687125 163.783288 
C 276.687125 160.535351 275.396706 157.420004 273.100067 155.123365 
C 270.803429 152.826727 267.688082 151.536308 264.440145 151.536308 
C 261.192207 151.536308 258.07686 152.826727 255.780222 155.123365 
C 253.483584 157.420004 252.193165 160.535351 252.193165 163.783288 
C 252.193165 167.031225 253.483584 170.146572 255.780222 172.443211 
C 258.07686 174.739849 261.192207 176.030268 264.440145 176.030268 
z
" clip-path="url(#p4f7b20eb58)" style="fill: #002d9c; stroke: #002d9c; stroke-width: 2; stroke-linejoin: miter"/>
   </g>
   <g id="patch_11">
    <path d="M 318.273024 115.199114 
C 319.664997 115.199114 321.000146 114.646078 321.984419 113.661804 
C 322.968693 112.67753 323.52173 111.342382 323.52173 109.950409 
C 323.52173 108.558436 322.968693 107.223287 321.984419 106.239013 
C 321.000146 105.25474 319.664997 104.701703 318.273024 104.701703 
C 316.881051 104.701703 315.545902 105.25474 314.561628 106.239013 
C 313.577355 107.223287 313.024318 108.558436 313.024318 109.950409 
C 313.024318 111.342382 313.577355 112.67753 314.561628 113.661804 
C 315.545902 114.646078 316.881051 115.199114 318.273024 115.199114 
z
" clip-path="url(#p4f7b20eb58)" style="fill: #002d9c; stroke: #002d9c; stroke-width: 1.5; stroke-linejoin: miter"/>
   </g>
   <g id="patch_12">
    <path d="M 318.273024 229.863147 
C 321.520961 229.863147 324.636308 228.572728 326.932947 226.27609 
C 329.229585 223.979452 330.520004 220.864104 330.520004 217.616167 
C 330.520004 214.36823 329.229585 211.252883 326.932947 208.956245 
C 324.636308 206.659606 321.520961 205.369187 318.273024 205.369187 
C 315.025087 205.369187 311.90974 206.659606 309.613101 208.956245 
C 307.316463 211.252883 306.026044 214.36823 306.026044 217.616167 
C 306.026044 220.864104 307.316463 223.979452 309.613101 226.27609 
C 311.90974 228.572728 315.025087 229.863147 318.273024 229.863147 
z
" clip-path="url(#p4f7b20eb58)" style="fill: #002d9c; stroke: #002d9c; stroke-width: 2; stroke-linejoin: miter"/>
   </g>
   <g id="patch_13">
    <path d="M 354.610217 235.111853 
L 389.601589 235.111853 
L 389.601589 200.120481 
L 354.610217 200.120481 
z
" clip-path="url(#p4f7b20eb58)" style="fill: #33b1ff; stroke: #33b1ff; stroke-width: 1.5; stroke-linejoin: miter"/>
   </g>
   <g id="patch_14">
    <path d="M 425.938782 115.199114 
C 427.330755 115.199114 428.665904 114.646078 429.650178 113.661804 
C 430.634451 112.67753 431.187488 111.342382 431.187488 109.950409 
C 431.187488 108.558436 430.634451 107.223287 429.650178 106.239013 
C 428.665904 105.25474 427.330755 104.701703 425.938782 104.701703 
C 424.546809 104.701703 423.211661 105.25474 422.227387 106.239013 
C 421.243113 107.223287 420.690077 108.558436 420.690077 109.950409 
C 420.690077 111.342382 421.243113 112.67753 422.227387 113.661804 
C 423.211661 114.646078 424.546809 115.199114 425.938782 115.199114 
z
" clip-path="url(#p4f7b20eb58)" style="fill: #002d9c; stroke: #002d9c; stroke-width: 1.5; stroke-linejoin: miter"/>
   </g>
   <g id="patch_15">
    <path d="M 425.938782 229.863147 
C 429.18672 229.863147 432.302067 228.572728 434.598705 226.27609 
C 436.895343 223.979452 438.185763 220.864104 438.185763 217.616167 
C 438.185763 214.36823 436.895343 211.252883 434.598705 208.956245 
C 432.302067 206.659606 429.18672 205.369187 425.938782 205.369187 
C 422.690845 205.369187 419.575498 206.659606 417.27886 208.956245 
C 414.982222 211.252883 413.691802 214.36823 413.691802 217.616167 
C 413.691802 220.864104 414.982222 223.979452 417.27886 226.27609 
C 419.575498 228.572728 422.690845 229.863147 425.938782 229.863147 
z
" clip-path="url(#p4f7b20eb58)" style="fill: #002d9c; stroke: #002d9c; stroke-width: 2; stroke-linejoin: miter"/>
   </g>
   <g id="patch_16">
    <path d="M 479.771662 169.031994 
C 481.163635 169.031994 482.498784 168.478957 483.483057 167.494683 
C 484.467331 166.51041 485.020367 165.175261 485.020367 163.783288 
C 485.020367 162.391315 484.467331 161.056166 483.483057 160.071893 
C 482.498784 159.087619 481.163635 158.534582 479.771662 158.534582 
C 478.379689 158.534582 477.04454 159.087619 476.060266 160.071893 
C 475.075993 161.056166 474.522956 162.391315 474.522956 163.783288 
C 474.522956 165.175261 475.075993 166.51041 476.060266 167.494683 
C 477.04454 168.478957 478.379689 169.031994 479.771662 169.031994 
z
" clip-path="url(#p4f7b20eb58)" style="fill: #002d9c; stroke: #002d9c; stroke-width: 1.5; stroke-linejoin: miter"/>
   </g>
   <g id="patch_17">
    <path d="M 479.771662 229.863147 
C 483.019599 229.863147 486.134946 228.572728 488.431584 226.27609 
C 490.728223 223.979452 492.018642 220.864104 492.018642 217.616167 
C 492.018642 214.36823 490.728223 211.252883 488.431584 208.956245 
C 486.134946 206.659606 483.019599 205.369187 479.771662 205.369187 
C 476.523725 205.369187 473.408377 206.659606 471.111739 208.956245 
C 468.815101 211.252883 467.524682 214.36823 467.524682 217.616167 
C 467.524682 220.864104 468.815101 223.979452 471.111739 226.27609 
C 473.408377 228.572728 476.523725 229.863147 479.771662 229.863147 
z
" clip-path="url(#p4f7b20eb58)" style="fill: #002d9c; stroke: #002d9c; stroke-width: 2; stroke-linejoin: miter"/>
   </g>
   <g id="patch_18">
    <path d="M 462.275976 127.446094 
L 497.267348 127.446094 
L 497.267348 92.454723 
L 462.275976 92.454723 
z
" clip-path="url(#p4f7b20eb58)" style="fill: #9f1853; stroke: #9f1853; stroke-width: 1.5; stroke-linejoin: miter"/>
   </g>
   <g id="patch_19">
    <path d="M 516.108855 235.111853 
L 551.100227 235.111853 
L 551.100227 200.120481 
L 516.108855 200.120481 
z
" clip-path="url(#p4f7b20eb58)" style="fill: #33b1ff; stroke: #33b1ff; stroke-width: 1.5; stroke-linejoin: miter"/>
   </g>
   <g id="patch_20">
    <path d="M 587.43742 169.031994 
C 588.829393 169.031994 590.164542 168.478957 591.148816 167.494683 
C 592.133089 166.51041 592.686126 165.175261 592.686126 163.783288 
C 592.686126 162.391315 592.133089 161.056166 591.148816 160.071893 
C 590.164542 159.087619 588.829393 158.534582 587.43742 158.534582 
C 586.045447 158.534582 584.710299 159.087619 583.726025 160.071893 
C 582.741751 161.056166 582.188715 162.391315 582.188715 163.783288 
C 582.188715 165.175261 582.741751 166.51041 583.726025 167.494683 
C 584.710299 168.478957 586.045447 169.031994 587.43742 169.031994 
z
" clip-path="url(#p4f7b20eb58)" style="fill: #002d9c; stroke: #002d9c; stroke-width: 1.5; stroke-linejoin: miter"/>
   </g>
   <g id="patch_21">
    <path d="M 587.43742 229.863147 
C 590.685357 229.863147 593.800705 228.572728 596.097343 226.27609 
C 598.393981 223.979452 599.6844 220.864104 599.6844 217.616167 
C 599.6844 214.36823 598.393981 211.252883 596.097343 208.956245 
C 593.800705 206.659606 590.685357 205.369187 587.43742 205.369187 
C 584.189483 205.369187 581.074136 206.659606 578.777498 208.956245 
C 576.480859 211.252883 575.19044 214.36823 575.19044 217.616167 
C 575.19044 220.864104 576.480859 223.979452 578.777498 226.27609 
C 581.074136 228.572728 584.189483 229.863147 587.43742 229.863147 
z
" clip-path="url(#p4f7b20eb58)" style="fill: #002d9c; stroke: #002d9c; stroke-width: 2; stroke-linejoin: miter"/>
   </g>
   <g id="patch_22">
    <path d="M 623.774614 181.278974 
L 658.765985 181.278974 
L 658.765985 146.287602 
L 623.774614 146.287602 
z
" clip-path="url(#p4f7b20eb58)" style="fill: #9f1853; stroke: #9f1853; stroke-width: 1.5; stroke-linejoin: miter"/>
   </g>
   <g id="patch_23">
    <path d="M 623.774614 235.111853 
L 658.765985 235.111853 
L 658.765985 200.120481 
L 623.774614 200.120481 
z
" clip-path="url(#p4f7b20eb58)" style="fill: #9f1853; stroke: #9f1853; stroke-width: 1.5; stroke-linejoin: miter"/>
   </g>
   <g id="line2d_10">
    <path d="M 156.774386 170.781562 
L 156.774386 156.785014 
" clip-path="url(#p4f7b20eb58)" style="fill: none; stroke: #ffffff; stroke-width: 2; stroke-linecap: square"/>
   </g>
   <g id="line2d_11">
    <path d="M 149.776112 163.783288 
L 163.77266 163.783288 
" clip-path="url(#p4f7b20eb58)" style="fill: none; stroke: #ffffff; stroke-width: 2; stroke-linecap: square"/>
   </g>
   <g id="line2d_12">
    <path d="M 264.440145 170.781562 
L 264.440145 156.785014 
" clip-path="url(#p4f7b20eb58)" style="fill: none; stroke: #ffffff; stroke-width: 2; stroke-linecap: square"/>
   </g>
   <g id="line2d_13">
    <path d="M 257.44187 163.783288 
L 271.438419 163.783288 
" clip-path="url(#p4f7b20eb58)" style="fill: none; stroke: #ffffff; stroke-width: 2; stroke-linecap: square"/>
   </g>
   <g id="line2d_14">
    <path d="M 318.273024 224.614442 
L 318.273024 210.617893 
" clip-path="url(#p4f7b20eb58)" style="fill: none; stroke: #ffffff; stroke-width: 2; stroke-linecap: square"/>
   </g>
   <g id="line2d_15">
    <path d="M 311.27475 217.616167 
L 325.271298 217.616167 
" clip-path="url(#p4f7b20eb58)" style="fill: none; stroke: #ffffff; stroke-width: 2; stroke-linecap: square"/>
   </g>
   <g id="line2d_16">
    <path d="M 425.938782 224.614442 
L 425.938782 210.617893 
" clip-path="url(#p4f7b20eb58)" style="fill: none; stroke: #ffffff; stroke-width: 2; stroke-linecap: square"/>
   </g>
   <g id="line2d_17">
    <path d="M 418.940508 217.616167 
L 432.937057 217.616167 
" clip-path="url(#p4f7b20eb58)" style="fill: none; stroke: #ffffff; stroke-width: 2; stroke-linecap: square"/>
   </g>
   <g id="line2d_18">
    <path d="M 479.771662 224.614442 
L 479.771662 210.617893 
" clip-path="url(#p4f7b20eb58)" style="fill: none; stroke: #ffffff; stroke-width: 2; stroke-linecap: square"/>
   </g>
   <g id="line2d_19">
    <path d="M 472.773387 217.616167 
L 486.769936 217.616167 
" clip-path="url(#p4f7b20eb58)" style="fill: none; stroke: #ffffff; stroke-width: 2; stroke-linecap: square"/>
   </g>
   <g id="line2d_20">
    <path d="M 587.43742 224.614442 
L 587.43742 210.617893 
" clip-path="url(#p4f7b20eb58)" style="fill: none; stroke: #ffffff; stroke-width: 2; stroke-linecap: square"/>
   </g>
   <g id="line2d_21">
    <path d="M 580.439146 217.616167 
L 594.435695 217.616167 
" clip-path="url(#p4f7b20eb58)" style="fill: none; stroke: #ffffff; stroke-width: 2; stroke-linecap: square"/>
   </g>
   <g id="text_1">
    <g clip-path="url(#p4f7b20eb58)">
     <!-- ${q}_{0}$ -->
     <g transform="translate(45.067676 114.401385) scale(0.1625 -0.1625)">
      <defs>
       <path id="DejaVuSans-Oblique-71" d="M 2669 525 
Q 2438 222 2123 65 
Q 1809 -91 1428 -91 
Q 897 -91 595 267 
Q 294 625 294 1253 
Q 294 1759 480 2231 
Q 666 2703 1013 3078 
Q 1238 3322 1530 3453 
Q 1822 3584 2144 3584 
Q 2531 3584 2781 3431 
Q 3031 3278 3144 2969 
L 3244 3494 
L 3822 3494 
L 2888 -1319 
L 2309 -1319 
L 2669 525 
z
M 891 1338 
Q 891 875 1084 633 
Q 1278 391 1644 391 
Q 2188 391 2572 911 
Q 2956 1431 2956 2175 
Q 2956 2625 2757 2864 
Q 2559 3103 2188 3103 
Q 1916 3103 1684 2976 
Q 1453 2850 1281 2606 
Q 1100 2350 995 2006 
Q 891 1663 891 1338 
z
" transform="scale(0.015625)"/>
       <path id="DejaVuSans-30" d="M 2034 4250 
Q 1547 4250 1301 3770 
Q 1056 3291 1056 2328 
Q 1056 1369 1301 889 
Q 1547 409 2034 409 
Q 2525 409 2770 889 
Q 3016 1369 3016 2328 
Q 3016 3291 2770 3770 
Q 2525 4250 2034 4250 
z
M 2034 4750 
Q 2819 4750 3233 4129 
Q 3647 3509 3647 2328 
Q 3647 1150 3233 529 
Q 2819 -91 2034 -91 
Q 1250 -91 836 529 
Q 422 1150 422 2328 
Q 422 3509 836 4129 
Q 1250 4750 2034 4750 
z
" transform="scale(0.015625)"/>
      </defs>
      <use xlink:href="#DejaVuSans-Oblique-71"/>
      <use xlink:href="#DejaVuSans-30" transform="translate(63.476562 -16.40625) scale(0.7)"/>
     </g>
    </g>
   </g>
   <g id="text_2">
    <g clip-path="url(#p4f7b20eb58)">
     <!-- ${q}_{1}$ -->
     <g transform="translate(45.067676 168.234264) scale(0.1625 -0.1625)">
      <defs>
       <path id="DejaVuSans-31" d="M 794 531 
L 1825 531 
L 1825 4091 
L 703 3866 
L 703 4441 
L 1819 4666 
L 2450 4666 
L 2450 531 
L 3481 531 
L 3481 0 
L 794 0 
L 794 531 
z
" transform="scale(0.015625)"/>
      </defs>
      <use xlink:href="#DejaVuSans-Oblique-71"/>
      <use xlink:href="#DejaVuSans-31" transform="translate(63.476562 -16.40625) scale(0.7)"/>
     </g>
    </g>
   </g>
   <g id="text_3">
    <g clip-path="url(#p4f7b20eb58)">
     <!-- ${q}_{2}$ -->
     <g transform="translate(45.067676 222.067144) scale(0.1625 -0.1625)">
      <defs>
       <path id="DejaVuSans-32" d="M 1228 531 
L 3431 531 
L 3431 0 
L 469 0 
L 469 531 
Q 828 903 1448 1529 
Q 2069 2156 2228 2338 
Q 2531 2678 2651 2914 
Q 2772 3150 2772 3378 
Q 2772 3750 2511 3984 
Q 2250 4219 1831 4219 
Q 1534 4219 1204 4116 
Q 875 4013 500 3803 
L 500 4441 
Q 881 4594 1212 4672 
Q 1544 4750 1819 4750 
Q 2544 4750 2975 4387 
Q 3406 4025 3406 3419 
Q 3406 3131 3298 2873 
Q 3191 2616 2906 2266 
Q 2828 2175 2409 1742 
Q 1991 1309 1228 531 
z
" transform="scale(0.015625)"/>
      </defs>
      <use xlink:href="#DejaVuSans-Oblique-71"/>
      <use xlink:href="#DejaVuSans-32" transform="translate(63.476562 -16.40625) scale(0.7)"/>
     </g>
    </g>
   </g>
   <g id="text_4">
    <g clip-path="url(#p4f7b20eb58)">
     <!-- H -->
     <g transform="translate(97.273304 113.537596) scale(0.13 -0.13)">
      <defs>
       <path id="DejaVuSerif-48" d="M 353 0 
L 353 331 
L 947 331 
L 947 4331 
L 353 4331 
L 353 4666 
L 2175 4666 
L 2175 4331 
L 1581 4331 
L 1581 2719 
L 4000 2719 
L 4000 4331 
L 3406 4331 
L 3406 4666 
L 5228 4666 
L 5228 4331 
L 4634 4331 
L 4634 331 
L 5228 331 
L 5228 0 
L 3406 0 
L 3406 331 
L 4000 331 
L 4000 2338 
L 1581 2338 
L 1581 331 
L 2175 331 
L 2175 0 
L 353 0 
z
" transform="scale(0.015625)"/>
      </defs>
      <use xlink:href="#DejaVuSerif-48"/>
     </g>
    </g>
   </g>
   <g id="text_5">
    <g clip-path="url(#p4f7b20eb58)">
     <!-- H -->
     <g transform="translate(97.273304 167.370475) scale(0.13 -0.13)">
      <use xlink:href="#DejaVuSerif-48"/>
     </g>
    </g>
   </g>
   <g id="text_6">
    <g clip-path="url(#p4f7b20eb58)">
     <!-- H -->
     <g transform="translate(97.273304 221.203355) scale(0.13 -0.13)">
      <use xlink:href="#DejaVuSerif-48"/>
     </g>
    </g>
   </g>
   <g id="text_7">
    <g clip-path="url(#p4f7b20eb58)">
     <!-- 0.615 -->
     <g transform="translate(199.156015 176.488199) scale(0.08 -0.08)">
      <defs>
       <path id="DejaVuSerif-30" d="M 2034 219 
Q 2513 219 2750 744 
Q 2988 1269 2988 2328 
Q 2988 3391 2750 3916 
Q 2513 4441 2034 4441 
Q 1556 4441 1318 3916 
Q 1081 3391 1081 2328 
Q 1081 1269 1318 744 
Q 1556 219 2034 219 
z
M 2034 -91 
Q 1275 -91 848 546 
Q 422 1184 422 2328 
Q 422 3475 848 4112 
Q 1275 4750 2034 4750 
Q 2797 4750 3222 4112 
Q 3647 3475 3647 2328 
Q 3647 1184 3222 546 
Q 2797 -91 2034 -91 
z
" transform="scale(0.015625)"/>
       <path id="DejaVuSerif-2e" d="M 603 325 
Q 603 500 722 622 
Q 841 744 1019 744 
Q 1191 744 1312 622 
Q 1434 500 1434 325 
Q 1434 153 1312 31 
Q 1191 -91 1019 -91 
Q 841 -91 722 29 
Q 603 150 603 325 
z
" transform="scale(0.015625)"/>
       <path id="DejaVuSerif-36" d="M 2094 219 
Q 2534 219 2771 542 
Q 3009 866 3009 1472 
Q 3009 2078 2771 2401 
Q 2534 2725 2094 2725 
Q 1647 2725 1412 2412 
Q 1178 2100 1178 1509 
Q 1178 888 1415 553 
Q 1653 219 2094 219 
z
M 1075 2569 
Q 1288 2803 1556 2918 
Q 1825 3034 2163 3034 
Q 2859 3034 3264 2615 
Q 3669 2197 3669 1472 
Q 3669 763 3233 336 
Q 2797 -91 2069 -91 
Q 1278 -91 853 498 
Q 428 1088 428 2181 
Q 428 3406 931 4078 
Q 1434 4750 2350 4750 
Q 2597 4750 2869 4703 
Q 3141 4656 3425 4563 
L 3425 3794 
L 3072 3794 
Q 3034 4109 2831 4275 
Q 2628 4441 2284 4441 
Q 1678 4441 1381 3981 
Q 1084 3522 1075 2569 
z
" transform="scale(0.015625)"/>
       <path id="DejaVuSerif-31" d="M 909 0 
L 909 331 
L 1722 331 
L 1722 4213 
L 781 3603 
L 781 4013 
L 1919 4750 
L 2350 4750 
L 2350 331 
L 3163 331 
L 3163 0 
L 909 0 
z
" transform="scale(0.015625)"/>
       <path id="DejaVuSerif-35" d="M 3219 4666 
L 3219 4153 
L 1081 4153 
L 1081 2816 
Q 1244 2928 1461 2984 
Q 1678 3041 1947 3041 
Q 2703 3041 3140 2622 
Q 3578 2203 3578 1478 
Q 3578 738 3136 323 
Q 2694 -91 1894 -91 
Q 1572 -91 1234 -12 
Q 897 66 544 225 
L 544 1131 
L 897 1131 
Q 925 688 1179 453 
Q 1434 219 1894 219 
Q 2388 219 2653 544 
Q 2919 869 2919 1478 
Q 2919 2084 2655 2407 
Q 2391 2731 1894 2731 
Q 1613 2731 1398 2631 
Q 1184 2531 1019 2322 
L 750 2322 
L 750 4666 
L 3219 4666 
z
" transform="scale(0.015625)"/>
      </defs>
      <use xlink:href="#DejaVuSerif-30"/>
      <use xlink:href="#DejaVuSerif-2e" transform="translate(63.623047 0)"/>
      <use xlink:href="#DejaVuSerif-36" transform="translate(95.410156 0)"/>
      <use xlink:href="#DejaVuSerif-31" transform="translate(159.033203 0)"/>
      <use xlink:href="#DejaVuSerif-35" transform="translate(222.65625 0)"/>
     </g>
    </g>
   </g>
   <g id="text_8">
    <g clip-path="url(#p4f7b20eb58)">
     <!-- $\mathrm{R_Z}$ -->
     <g transform="translate(202.677265 162.12177) scale(0.13 -0.13)">
      <defs>
       <path id="DejaVuSans-52" d="M 2841 2188 
Q 3044 2119 3236 1894 
Q 3428 1669 3622 1275 
L 4263 0 
L 3584 0 
L 2988 1197 
Q 2756 1666 2539 1819 
Q 2322 1972 1947 1972 
L 1259 1972 
L 1259 0 
L 628 0 
L 628 4666 
L 2053 4666 
Q 2853 4666 3247 4331 
Q 3641 3997 3641 3322 
Q 3641 2881 3436 2590 
Q 3231 2300 2841 2188 
z
M 1259 4147 
L 1259 2491 
L 2053 2491 
Q 2509 2491 2742 2702 
Q 2975 2913 2975 3322 
Q 2975 3731 2742 3939 
Q 2509 4147 2053 4147 
L 1259 4147 
z
" transform="scale(0.015625)"/>
       <path id="DejaVuSans-5a" d="M 359 4666 
L 4025 4666 
L 4025 4184 
L 1075 531 
L 4097 531 
L 4097 0 
L 288 0 
L 288 481 
L 3238 4134 
L 359 4134 
L 359 4666 
z
" transform="scale(0.015625)"/>
      </defs>
      <use xlink:href="#DejaVuSans-52" transform="translate(0 0.09375)"/>
      <use xlink:href="#DejaVuSans-5a" transform="translate(70.439453 -16.3125) scale(0.7)"/>
     </g>
    </g>
   </g>
   <g id="text_9">
    <g clip-path="url(#p4f7b20eb58)">
     <!-- 0.615 -->
     <g transform="translate(360.654653 230.321079) scale(0.08 -0.08)">
      <use xlink:href="#DejaVuSerif-30"/>
      <use xlink:href="#DejaVuSerif-2e" transform="translate(63.623047 0)"/>
      <use xlink:href="#DejaVuSerif-36" transform="translate(95.410156 0)"/>
      <use xlink:href="#DejaVuSerif-31" transform="translate(159.033203 0)"/>
      <use xlink:href="#DejaVuSerif-35" transform="translate(222.65625 0)"/>
     </g>
    </g>
   </g>
   <g id="text_10">
    <g clip-path="url(#p4f7b20eb58)">
     <!-- $\mathrm{R_Z}$ -->
     <g transform="translate(364.175903 215.954649) scale(0.13 -0.13)">
      <use xlink:href="#DejaVuSans-52" transform="translate(0 0.09375)"/>
      <use xlink:href="#DejaVuSans-5a" transform="translate(70.439453 -16.3125) scale(0.7)"/>
     </g>
    </g>
   </g>
   <g id="text_11">
    <g clip-path="url(#p4f7b20eb58)">
     <!-- 2.53 -->
     <g style="fill: #ffffff" transform="translate(470.865412 122.65532) scale(0.08 -0.08)">
      <defs>
       <path id="DejaVuSerif-32" d="M 819 3553 
L 469 3553 
L 469 4384 
Q 803 4563 1142 4656 
Q 1481 4750 1806 4750 
Q 2534 4750 2956 4397 
Q 3378 4044 3378 3438 
Q 3378 2753 2422 1800 
Q 2347 1728 2309 1691 
L 1131 513 
L 3078 513 
L 3078 1088 
L 3444 1088 
L 3444 0 
L 434 0 
L 434 341 
L 1850 1753 
Q 2319 2222 2519 2614 
Q 2719 3006 2719 3438 
Q 2719 3909 2473 4175 
Q 2228 4441 1797 4441 
Q 1350 4441 1106 4219 
Q 863 3997 819 3553 
z
" transform="scale(0.015625)"/>
       <path id="DejaVuSerif-33" d="M 622 4469 
Q 988 4606 1323 4678 
Q 1659 4750 1953 4750 
Q 2638 4750 3022 4454 
Q 3406 4159 3406 3634 
Q 3406 3213 3140 2930 
Q 2875 2647 2388 2547 
Q 2963 2466 3280 2130 
Q 3597 1794 3597 1259 
Q 3597 606 3158 257 
Q 2719 -91 1894 -91 
Q 1528 -91 1179 -12 
Q 831 66 488 225 
L 488 1131 
L 838 1131 
Q 869 681 1141 450 
Q 1413 219 1906 219 
Q 2384 219 2661 495 
Q 2938 772 2938 1253 
Q 2938 1803 2653 2086 
Q 2369 2369 1819 2369 
L 1522 2369 
L 1522 2688 
L 1678 2688 
Q 2225 2688 2498 2914 
Q 2772 3141 2772 3597 
Q 2772 4006 2547 4223 
Q 2322 4441 1900 4441 
Q 1478 4441 1245 4241 
Q 1013 4041 972 3647 
L 622 3647 
L 622 4469 
z
" transform="scale(0.015625)"/>
      </defs>
      <use xlink:href="#DejaVuSerif-32"/>
      <use xlink:href="#DejaVuSerif-2e" transform="translate(63.623047 0)"/>
      <use xlink:href="#DejaVuSerif-35" transform="translate(95.410156 0)"/>
      <use xlink:href="#DejaVuSerif-33" transform="translate(159.033203 0)"/>
     </g>
    </g>
   </g>
   <g id="text_12">
    <g clip-path="url(#p4f7b20eb58)">
     <!-- $\mathrm{R_X}$ -->
     <g style="fill: #ffffff" transform="translate(471.841662 108.28889) scale(0.13 -0.13)">
      <defs>
       <path id="DejaVuSans-58" d="M 403 4666 
L 1081 4666 
L 2241 2931 
L 3406 4666 
L 4084 4666 
L 2584 2425 
L 4184 0 
L 3506 0 
L 2194 1984 
L 872 0 
L 191 0 
L 1856 2491 
L 403 4666 
z
" transform="scale(0.015625)"/>
      </defs>
      <use xlink:href="#DejaVuSans-52" transform="translate(0 0.09375)"/>
      <use xlink:href="#DejaVuSans-58" transform="translate(70.439453 -16.3125) scale(0.7)"/>
     </g>
    </g>
   </g>
   <g id="text_13">
    <g clip-path="url(#p4f7b20eb58)">
     <!-- 0.615 -->
     <g transform="translate(522.153291 230.321079) scale(0.08 -0.08)">
      <use xlink:href="#DejaVuSerif-30"/>
      <use xlink:href="#DejaVuSerif-2e" transform="translate(63.623047 0)"/>
      <use xlink:href="#DejaVuSerif-36" transform="translate(95.410156 0)"/>
      <use xlink:href="#DejaVuSerif-31" transform="translate(159.033203 0)"/>
      <use xlink:href="#DejaVuSerif-35" transform="translate(222.65625 0)"/>
     </g>
    </g>
   </g>
   <g id="text_14">
    <g clip-path="url(#p4f7b20eb58)">
     <!-- $\mathrm{R_Z}$ -->
     <g transform="translate(525.674541 215.954649) scale(0.13 -0.13)">
      <use xlink:href="#DejaVuSans-52" transform="translate(0 0.09375)"/>
      <use xlink:href="#DejaVuSans-5a" transform="translate(70.439453 -16.3125) scale(0.7)"/>
     </g>
    </g>
   </g>
   <g id="text_15">
    <g clip-path="url(#p4f7b20eb58)">
     <!-- 2.53 -->
     <g style="fill: #ffffff" transform="translate(632.36405 176.488199) scale(0.08 -0.08)">
      <use xlink:href="#DejaVuSerif-32"/>
      <use xlink:href="#DejaVuSerif-2e" transform="translate(63.623047 0)"/>
      <use xlink:href="#DejaVuSerif-35" transform="translate(95.410156 0)"/>
      <use xlink:href="#DejaVuSerif-33" transform="translate(159.033203 0)"/>
     </g>
    </g>
   </g>
   <g id="text_16">
    <g clip-path="url(#p4f7b20eb58)">
     <!-- $\mathrm{R_X}$ -->
     <g style="fill: #ffffff" transform="translate(633.3403 162.12177) scale(0.13 -0.13)">
      <use xlink:href="#DejaVuSans-52" transform="translate(0 0.09375)"/>
      <use xlink:href="#DejaVuSans-58" transform="translate(70.439453 -16.3125) scale(0.7)"/>
     </g>
    </g>
   </g>
   <g id="text_17">
    <g clip-path="url(#p4f7b20eb58)">
     <!-- 2.53 -->
     <g style="fill: #ffffff" transform="translate(632.36405 230.321079) scale(0.08 -0.08)">
      <use xlink:href="#DejaVuSerif-32"/>
      <use xlink:href="#DejaVuSerif-2e" transform="translate(63.623047 0)"/>
      <use xlink:href="#DejaVuSerif-35" transform="translate(95.410156 0)"/>
      <use xlink:href="#DejaVuSerif-33" transform="translate(159.033203 0)"/>
     </g>
    </g>
   </g>
   <g id="text_18">
    <g clip-path="url(#p4f7b20eb58)">
     <!-- $\mathrm{R_X}$ -->
     <g style="fill: #ffffff" transform="translate(633.3403 215.954649) scale(0.13 -0.13)">
      <use xlink:href="#DejaVuSans-52" transform="translate(0 0.09375)"/>
      <use xlink:href="#DejaVuSans-58" transform="translate(70.439453 -16.3125) scale(0.7)"/>
     </g>
    </g>
   </g>
  </g>
  <g id="text_19">
   <!-- K₃ QAOA circuit (p=1,  γ*=0.615,  β*=1.263) -->
   <g transform="translate(182.688203 17.147031) scale(0.13 -0.13)">
    <defs>
     <path id="DejaVuSerif-4b" d="M 353 0 
L 353 331 
L 947 331 
L 947 4331 
L 353 4331 
L 353 4666 
L 2175 4666 
L 2175 4331 
L 1581 4331 
L 1581 2566 
L 3591 4331 
L 3084 4331 
L 3084 4666 
L 4634 4666 
L 4634 4331 
L 4109 4331 
L 2106 2572 
L 4347 331 
L 4878 331 
L 4878 0 
L 3794 0 
L 1581 2216 
L 1581 331 
L 2175 331 
L 2175 0 
L 353 0 
z
" transform="scale(0.015625)"/>
     <path id="DejaVuSerif-2083" d="M 391 2476 
Q 619 2557 828 2597 
Q 1038 2638 1222 2638 
Q 1653 2638 1886 2469 
Q 2119 2301 2119 1991 
Q 2119 1766 1953 1610 
Q 1788 1454 1491 1401 
Q 1863 1351 2052 1165 
Q 2241 979 2241 666 
Q 2241 310 1967 119 
Q 1694 -71 1184 -71 
Q 959 -71 742 -27 
Q 525 16 313 104 
L 313 635 
L 531 632 
Q 547 401 700 280 
Q 853 160 1141 160 
Q 1434 160 1593 297 
Q 1753 435 1753 691 
Q 1753 982 1593 1130 
Q 1434 1279 1119 1279 
L 953 1279 
L 953 1510 
L 1038 1510 
Q 1341 1510 1495 1625 
Q 1650 1741 1650 1972 
Q 1650 2182 1523 2294 
Q 1397 2407 1159 2407 
Q 903 2407 767 2307 
Q 631 2207 609 2004 
L 391 2004 
L 391 2476 
z
" transform="scale(0.015625)"/>
     <path id="DejaVuSerif-20" transform="scale(0.015625)"/>
     <path id="DejaVuSerif-51" d="M 2700 -91 
Q 1628 -91 993 567 
Q 359 1225 359 2328 
Q 359 2894 529 3339 
Q 700 3784 1050 4134 
Q 1356 4441 1750 4595 
Q 2144 4750 2625 4750 
Q 3641 4750 4266 4084 
Q 4891 3419 4891 2328 
Q 4891 1403 4422 773 
Q 3953 144 3128 -38 
Q 3297 -247 3539 -347 
Q 3781 -447 4122 -447 
L 4219 -447 
L 4219 -1025 
Q 3691 -1000 3314 -767 
Q 2938 -534 2700 -91 
z
M 2625 244 
Q 3391 244 3781 770 
Q 4172 1297 4172 2328 
Q 4172 3363 3781 3889 
Q 3391 4416 2625 4416 
Q 1856 4416 1465 3889 
Q 1075 3363 1075 2328 
Q 1075 1297 1465 770 
Q 1856 244 2625 244 
z
" transform="scale(0.015625)"/>
     <path id="DejaVuSerif-41" d="M 1281 1691 
L 2994 1691 
L 2138 3909 
L 1281 1691 
z
M -38 0 
L -38 331 
L 372 331 
L 2034 4666 
L 2559 4666 
L 4225 331 
L 4684 331 
L 4684 0 
L 2988 0 
L 2988 331 
L 3506 331 
L 3116 1356 
L 1153 1356 
L 763 331 
L 1275 331 
L 1275 0 
L -38 0 
z
" transform="scale(0.015625)"/>
     <path id="DejaVuSerif-4f" d="M 2625 244 
Q 3391 244 3781 770 
Q 4172 1297 4172 2328 
Q 4172 3363 3781 3889 
Q 3391 4416 2625 4416 
Q 1856 4416 1465 3889 
Q 1075 3363 1075 2328 
Q 1075 1297 1465 770 
Q 1856 244 2625 244 
z
M 2625 -91 
Q 2150 -91 1751 65 
Q 1353 222 1050 525 
Q 700 875 529 1319 
Q 359 1763 359 2328 
Q 359 2894 529 3339 
Q 700 3784 1050 4134 
Q 1356 4441 1750 4595 
Q 2144 4750 2625 4750 
Q 3641 4750 4266 4084 
Q 4891 3419 4891 2328 
Q 4891 1769 4719 1320 
Q 4547 872 4197 525 
Q 3891 219 3497 64 
Q 3103 -91 2625 -91 
z
" transform="scale(0.015625)"/>
     <path id="DejaVuSerif-63" d="M 3291 997 
Q 3169 466 2822 187 
Q 2475 -91 1925 -91 
Q 1200 -91 759 389 
Q 319 869 319 1663 
Q 319 2459 759 2936 
Q 1200 3413 1925 3413 
Q 2241 3413 2553 3339 
Q 2866 3266 3181 3116 
L 3181 2266 
L 2847 2266 
Q 2781 2703 2561 2903 
Q 2341 3103 1931 3103 
Q 1466 3103 1228 2742 
Q 991 2381 991 1663 
Q 991 944 1227 581 
Q 1463 219 1931 219 
Q 2303 219 2525 412 
Q 2747 606 2828 997 
L 3291 997 
z
" transform="scale(0.015625)"/>
     <path id="DejaVuSerif-69" d="M 622 4353 
Q 622 4497 726 4603 
Q 831 4709 978 4709 
Q 1122 4709 1226 4603 
Q 1331 4497 1331 4353 
Q 1331 4206 1228 4103 
Q 1125 4000 978 4000 
Q 831 4000 726 4103 
Q 622 4206 622 4353 
z
M 1356 331 
L 1900 331 
L 1900 0 
L 231 0 
L 231 331 
L 781 331 
L 781 2988 
L 231 2988 
L 231 3322 
L 1356 3322 
L 1356 331 
z
" transform="scale(0.015625)"/>
     <path id="DejaVuSerif-72" d="M 3059 3328 
L 3059 2497 
L 2728 2497 
Q 2713 2744 2591 2866 
Q 2469 2988 2234 2988 
Q 1809 2988 1582 2694 
Q 1356 2400 1356 1850 
L 1356 331 
L 2022 331 
L 2022 0 
L 263 0 
L 263 331 
L 781 331 
L 781 2994 
L 231 2994 
L 231 3322 
L 1356 3322 
L 1356 2731 
Q 1525 3078 1790 3245 
Q 2056 3413 2438 3413 
Q 2578 3413 2733 3391 
Q 2888 3369 3059 3328 
z
" transform="scale(0.015625)"/>
     <path id="DejaVuSerif-75" d="M 2266 3322 
L 3341 3322 
L 3341 331 
L 3884 331 
L 3884 0 
L 2766 0 
L 2766 588 
Q 2606 256 2353 82 
Q 2100 -91 1766 -91 
Q 1213 -91 952 223 
Q 691 538 691 1209 
L 691 2988 
L 172 2988 
L 172 3322 
L 1269 3322 
L 1269 1388 
Q 1269 781 1417 556 
Q 1566 331 1947 331 
Q 2347 331 2556 625 
Q 2766 919 2766 1478 
L 2766 2988 
L 2266 2988 
L 2266 3322 
z
" transform="scale(0.015625)"/>
     <path id="DejaVuSerif-74" d="M 691 2988 
L 184 2988 
L 184 3322 
L 691 3322 
L 691 4353 
L 1269 4353 
L 1269 3322 
L 2350 3322 
L 2350 2988 
L 1269 2988 
L 1269 878 
Q 1269 456 1350 337 
Q 1431 219 1650 219 
Q 1875 219 1978 351 
Q 2081 484 2088 781 
L 2522 781 
Q 2497 328 2275 118 
Q 2053 -91 1600 -91 
Q 1103 -91 897 129 
Q 691 350 691 878 
L 691 2988 
z
" transform="scale(0.015625)"/>
     <path id="DejaVuSerif-28" d="M 2041 -997 
Q 1281 -656 893 83 
Q 506 822 506 1931 
Q 506 3044 893 3783 
Q 1281 4522 2041 4863 
L 2041 4556 
Q 1559 4225 1350 3623 
Q 1141 3022 1141 1931 
Q 1141 844 1350 242 
Q 1559 -359 2041 -691 
L 2041 -997 
z
" transform="scale(0.015625)"/>
     <path id="DejaVuSerif-70" d="M 1313 1825 
L 1313 1497 
Q 1313 897 1542 583 
Q 1772 269 2209 269 
Q 2650 269 2876 622 
Q 3103 975 3103 1663 
Q 3103 2353 2876 2703 
Q 2650 3053 2209 3053 
Q 1772 3053 1542 2737 
Q 1313 2422 1313 1825 
z
M 738 2988 
L 184 2988 
L 184 3322 
L 1313 3322 
L 1313 2803 
Q 1481 3116 1742 3264 
Q 2003 3413 2388 3413 
Q 3000 3413 3387 2928 
Q 3775 2444 3775 1663 
Q 3775 881 3387 395 
Q 3000 -91 2388 -91 
Q 2003 -91 1742 57 
Q 1481 206 1313 519 
L 1313 -997 
L 1856 -997 
L 1856 -1331 
L 184 -1331 
L 184 -997 
L 738 -997 
L 738 2988 
z
" transform="scale(0.015625)"/>
     <path id="DejaVuSerif-3d" d="M 678 2894 
L 4684 2894 
L 4684 2394 
L 678 2394 
L 678 2894 
z
M 678 1619 
L 4684 1619 
L 4684 1119 
L 678 1119 
L 678 1619 
z
" transform="scale(0.015625)"/>
     <path id="DejaVuSerif-2c" d="M 231 -622 
Q 525 -406 662 -114 
Q 800 178 800 594 
L 800 709 
L 1416 709 
Q 1391 175 1164 -208 
Q 938 -591 481 -872 
L 231 -622 
z
" transform="scale(0.015625)"/>
     <path id="DejaVuSerif-3b3" d="M 2225 188 
Q 2419 -725 2238 -1063 
Q 2091 -1331 1875 -1338 
Q 1544 -1347 1400 -1025 
Q 1238 -663 1672 50 
L 781 2988 
L 231 2988 
L 231 3322 
L 1294 3322 
L 2103 622 
Q 2813 1575 2897 2231 
Q 2938 2541 2859 2750 
Q 2734 3084 2584 3138 
L 2584 3322 
L 2934 3322 
Q 3297 3103 3384 2919 
Q 3509 2656 3509 2491 
Q 3509 2188 3188 1588 
Q 3063 1353 2225 188 
z
" transform="scale(0.015625)"/>
     <path id="DejaVuSerif-2a" d="M 3097 3866 
L 1875 3297 
L 3097 2719 
L 2859 2350 
L 1772 3028 
L 1813 1838 
L 1388 1838 
L 1428 3028 
L 341 2350 
L 103 2719 
L 1325 3291 
L 103 3866 
L 341 4238 
L 1428 3559 
L 1388 4750 
L 1813 4750 
L 1772 3559 
L 2859 4238 
L 3097 3866 
z
" transform="scale(0.015625)"/>
     <path id="DejaVuSerif-3b2" d="M 978 403 
Q 1228 219 1688 219 
Q 2166 219 2442 495 
Q 2719 772 2719 1253 
Q 2719 1906 2434 2188 
Q 2144 2478 1600 2478 
L 1303 2478 
L 1303 2813 
L 1459 2813 
Q 1856 2813 2131 3038 
Q 2356 3228 2356 3725 
Q 2356 3941 2209 4188 
Q 1969 4597 1681 4588 
Q 978 4566 978 3319 
L 978 403 
z
M 403 -1331 
L 403 3319 
Q 403 4628 1106 4803 
Q 1478 4897 1734 4897 
Q 2319 4897 2694 4438 
Q 2991 4075 2991 3763 
Q 2991 3319 2772 3056 
Q 2556 2797 2169 2672 
Q 2738 2591 3063 2250 
Q 3378 1913 3378 1259 
Q 3378 606 2939 257 
Q 2500 -91 1675 -91 
Q 1169 -91 978 -19 
L 978 -1331 
L 403 -1331 
z
" transform="scale(0.015625)"/>
     <path id="DejaVuSerif-29" d="M 453 -997 
L 453 -691 
Q 934 -359 1145 242 
Q 1356 844 1356 1931 
Q 1356 3022 1145 3623 
Q 934 4225 453 4556 
L 453 4863 
Q 1216 4522 1603 3783 
Q 1991 3044 1991 1931 
Q 1991 822 1603 83 
Q 1216 -656 453 -997 
z
" transform="scale(0.015625)"/>
    </defs>
    <use xlink:href="#DejaVuSerif-4b"/>
    <use xlink:href="#DejaVuSerif-2083" transform="translate(74.707031 0)"/>
    <use xlink:href="#DejaVuSerif-20" transform="translate(114.794922 0)"/>
    <use xlink:href="#DejaVuSerif-51" transform="translate(146.582031 0)"/>
    <use xlink:href="#DejaVuSerif-41" transform="translate(228.564453 0)"/>
    <use xlink:href="#DejaVuSerif-4f" transform="translate(300.78125 0)"/>
    <use xlink:href="#DejaVuSerif-41" transform="translate(382.763672 0)"/>
    <use xlink:href="#DejaVuSerif-20" transform="translate(454.980469 0)"/>
    <use xlink:href="#DejaVuSerif-63" transform="translate(486.767578 0)"/>
    <use xlink:href="#DejaVuSerif-69" transform="translate(542.773438 0)"/>
    <use xlink:href="#DejaVuSerif-72" transform="translate(574.755859 0)"/>
    <use xlink:href="#DejaVuSerif-63" transform="translate(622.558594 0)"/>
    <use xlink:href="#DejaVuSerif-75" transform="translate(678.564453 0)"/>
    <use xlink:href="#DejaVuSerif-69" transform="translate(742.96875 0)"/>
    <use xlink:href="#DejaVuSerif-74" transform="translate(774.951172 0)"/>
    <use xlink:href="#DejaVuSerif-20" transform="translate(815.136719 0)"/>
    <use xlink:href="#DejaVuSerif-28" transform="translate(846.923828 0)"/>
    <use xlink:href="#DejaVuSerif-70" transform="translate(885.9375 0)"/>
    <use xlink:href="#DejaVuSerif-3d" transform="translate(949.951172 0)"/>
    <use xlink:href="#DejaVuSerif-31" transform="translate(1033.740234 0)"/>
    <use xlink:href="#DejaVuSerif-2c" transform="translate(1097.363281 0)"/>
    <use xlink:href="#DejaVuSerif-20" transform="translate(1129.150391 0)"/>
    <use xlink:href="#DejaVuSerif-20" transform="translate(1160.9375 0)"/>
    <use xlink:href="#DejaVuSerif-3b3" transform="translate(1192.724609 0)"/>
    <use xlink:href="#DejaVuSerif-2a" transform="translate(1252.490234 0)"/>
    <use xlink:href="#DejaVuSerif-3d" transform="translate(1302.490234 0)"/>
    <use xlink:href="#DejaVuSerif-30" transform="translate(1386.279297 0)"/>
    <use xlink:href="#DejaVuSerif-2e" transform="translate(1449.902344 0)"/>
    <use xlink:href="#DejaVuSerif-36" transform="translate(1481.689453 0)"/>
    <use xlink:href="#DejaVuSerif-31" transform="translate(1545.3125 0)"/>
    <use xlink:href="#DejaVuSerif-35" transform="translate(1608.935547 0)"/>
    <use xlink:href="#DejaVuSerif-2c" transform="translate(1672.558594 0)"/>
    <use xlink:href="#DejaVuSerif-20" transform="translate(1704.345703 0)"/>
    <use xlink:href="#DejaVuSerif-20" transform="translate(1736.132812 0)"/>
    <use xlink:href="#DejaVuSerif-3b2" transform="translate(1767.919922 0)"/>
    <use xlink:href="#DejaVuSerif-2a" transform="translate(1825.732422 0)"/>
    <use xlink:href="#DejaVuSerif-3d" transform="translate(1875.732422 0)"/>
    <use xlink:href="#DejaVuSerif-31" transform="translate(1959.521484 0)"/>
    <use xlink:href="#DejaVuSerif-2e" transform="translate(2023.144531 0)"/>
    <use xlink:href="#DejaVuSerif-32" transform="translate(2054.931641 0)"/>
    <use xlink:href="#DejaVuSerif-36" transform="translate(2118.554688 0)"/>
    <use xlink:href="#DejaVuSerif-33" transform="translate(2182.177734 0)"/>
    <use xlink:href="#DejaVuSerif-29" transform="translate(2245.800781 0)"/>
   </g>
  </g>
 </g>
 <defs>
  <clipPath id="p4f7b20eb58">
   <rect x="7.2" y="66.884105" width="669.6" height="183.03179"/>
  </clipPath>
 </defs>
</svg>
