<?xml version="1.0" encoding="utf-8" standalone="no"?>
<!DOCTYPE svg PUBLIC "-//W3C//DTD SVG 1.1//EN"
  "http://www.w3.org/Graphics/SVG/1.1/DTD/svg11.dtd">
<svg xmlns:xlink="http://www.w3.org/1999/xlink" width="708.245469pt" height="420.106719pt" viewBox="0 0 708.245469 420.106719" xmlns="http://www.w3.org/2000/svg" version="1.1">
 <metadata>
  <rdf:RDF xmlns:dc="http://purl.org/dc/elements/1.1/" xmlns:cc="http://creativecommons.org/ns#" xmlns:rdf="http://www.w3.org/1999/02/22-rdf-syntax-ns#">
   <cc:Work>
    <dc:type rdf:resource="http://purl.org/dc/dcmitype/StillImage"/>
    <dc:date>2026-04-23T00:05:21.216743</dc:date>
    <dc:format>image/svg+xml</dc:format>
    <dc:creator>
     <cc:Agent>
      <dc:title>Matplotlib v3.10.8, https://matplotlib.org/</dc:title>
     </cc:Agent>
    </dc:creator>
   </cc:Work>
  </rdf:RDF>
 </metadata>
 <defs>
  <style type="text/css">*{stroke-linejoin: round; stroke-linecap: butt}</style>
 </defs>
 <g id="figure_1">
  <g id="patch_1">
   <path d="M 0 420.106719 
L 708.245469 420.106719 
L 708.245469 0 
L 0 0 
z
" style="fill: #ffffff"/>
  </g>
  <g id="axes_1">
   <g id="patch_2">
    <path d="M 56.845469 379.647031 
L 701.045469 379.647031 
L 701.045469 23.147031 
L 56.845469 23.147031 
z
" style="fill: #ffffff"/>
   </g>
   <g id="matplotlib.axis_1">
    <g id="xtick_1">
     <g id="line2d_1">
      <path d="M 79.317562 379.647031 
L 79.317562 23.147031 
" clip-path="url(#p78744f9af7)" style="fill: none; stroke: #b0b0b0; stroke-opacity: 0.3; stroke-width: 0.8; stroke-linecap: square"/>
     </g>
     <g id="line2d_2">
      <defs>
       <path id="m48ec8ec1fa" d="M 0 0 
L 0 3.5 
" style="stroke: #000000; stroke-width: 0.8"/>
      </defs>
      <g>
       <use xlink:href="#m48ec8ec1fa" x="79.317562" y="379.647031" style="stroke: #000000; stroke-width: 0.8"/>
      </g>
     </g>
     <g id="text_1">
      <!-- 0 -->
      <g transform="translate(75.818187 395.005313) scale(0.11 -0.11)">
       <defs>
        <path id="DejaVuSerif-30" d="M 2034 219 
Q 2513 219 2750 744 
Q 2988 1269 2988 2328 
Q 2988 3391 2750 3916 
Q 2513 4441 2034 4441 
Q 1556 4441 1318 3916 
Q 1081 3391 1081 2328 
Q 1081 1269 1318 744 
Q 1556 219 2034 219 
z
M 2034 -91 
Q 1275 -91 848 546 
Q 422 1184 422 2328 
Q 422 3475 848 4112 
Q 1275 4750 2034 4750 
Q 2797 4750 3222 4112 
Q 3647 3475 3647 2328 
Q 3647 1184 3222 546 
Q 2797 -91 2034 -91 
z
" transform="scale(0.015625)"/>
       </defs>
       <use xlink:href="#DejaVuSerif-30"/>
      </g>
     </g>
    </g>
    <g id="xtick_2">
     <g id="line2d_3">
      <path d="M 215.512065 379.647031 
L 215.512065 23.147031 
" clip-path="url(#p78744f9af7)" style="fill: none; stroke: #b0b0b0; stroke-opacity: 0.3; stroke-width: 0.8; stroke-linecap: square"/>
     </g>
     <g id="line2d_4">
      <g>
       <use xlink:href="#m48ec8ec1fa" x="215.512065" y="379.647031" style="stroke: #000000; stroke-width: 0.8"/>
      </g>
     </g>
     <g id="text_2">
      <!-- 20 -->
      <g transform="translate(208.513315 395.005313) scale(0.11 -0.11)">
       <defs>
        <path id="DejaVuSerif-32" d="M 819 3553 
L 469 3553 
L 469 4384 
Q 803 4563 1142 4656 
Q 1481 4750 1806 4750 
Q 2534 4750 2956 4397 
Q 3378 4044 3378 3438 
Q 3378 2753 2422 1800 
Q 2347 1728 2309 1691 
L 1131 513 
L 3078 513 
L 3078 1088 
L 3444 1088 
L 3444 0 
L 434 0 
L 434 341 
L 1850 1753 
Q 2319 2222 2519 2614 
Q 2719 3006 2719 3438 
Q 2719 3909 2473 4175 
Q 2228 4441 1797 4441 
Q 1350 4441 1106 4219 
Q 863 3997 819 3553 
z
" transform="scale(0.015625)"/>
       </defs>
       <use xlink:href="#DejaVuSerif-32"/>
       <use xlink:href="#DejaVuSerif-30" transform="translate(63.623047 0)"/>
      </g>
     </g>
    </g>
    <g id="xtick_3">
     <g id="line2d_5">
      <path d="M 351.706568 379.647031 
L 351.706568 23.147031 
" clip-path="url(#p78744f9af7)" style="fill: none; stroke: #b0b0b0; stroke-opacity: 0.3; stroke-width: 0.8; stroke-linecap: square"/>
     </g>
     <g id="line2d_6">
      <g>
       <use xlink:href="#m48ec8ec1fa" x="351.706568" y="379.647031" style="stroke: #000000; stroke-width: 0.8"/>
      </g>
     </g>
     <g id="text_3">
      <!-- 40 -->
      <g transform="translate(344.707818 395.005313) scale(0.11 -0.11)">
       <defs>
        <path id="DejaVuSerif-34" d="M 2234 1581 
L 2234 4063 
L 641 1581 
L 2234 1581 
z
M 3609 0 
L 1484 0 
L 1484 331 
L 2234 331 
L 2234 1247 
L 197 1247 
L 197 1588 
L 2241 4750 
L 2859 4750 
L 2859 1581 
L 3750 1581 
L 3750 1247 
L 2859 1247 
L 2859 331 
L 3609 331 
L 3609 0 
z
" transform="scale(0.015625)"/>
       </defs>
       <use xlink:href="#DejaVuSerif-34"/>
       <use xlink:href="#DejaVuSerif-30" transform="translate(63.623047 0)"/>
      </g>
     </g>
    </g>
    <g id="xtick_4">
     <g id="line2d_7">
      <path d="M 487.901071 379.647031 
L 487.901071 23.147031 
" clip-path="url(#p78744f9af7)" style="fill: none; stroke: #b0b0b0; stroke-opacity: 0.3; stroke-width: 0.8; stroke-linecap: square"/>
     </g>
     <g id="line2d_8">
      <g>
       <use xlink:href="#m48ec8ec1fa" x="487.901071" y="379.647031" style="stroke: #000000; stroke-width: 0.8"/>
      </g>
     </g>
     <g id="text_4">
      <!-- 60 -->
      <g transform="translate(480.902321 395.005313) scale(0.11 -0.11)">
       <defs>
        <path id="DejaVuSerif-36" d="M 2094 219 
Q 2534 219 2771 542 
Q 3009 866 3009 1472 
Q 3009 2078 2771 2401 
Q 2534 2725 2094 2725 
Q 1647 2725 1412 2412 
Q 1178 2100 1178 1509 
Q 1178 888 1415 553 
Q 1653 219 2094 219 
z
M 1075 2569 
Q 1288 2803 1556 2918 
Q 1825 3034 2163 3034 
Q 2859 3034 3264 2615 
Q 3669 2197 3669 1472 
Q 3669 763 3233 336 
Q 2797 -91 2069 -91 
Q 1278 -91 853 498 
Q 428 1088 428 2181 
Q 428 3406 931 4078 
Q 1434 4750 2350 4750 
Q 2597 4750 2869 4703 
Q 3141 4656 3425 4563 
L 3425 3794 
L 3072 3794 
Q 3034 4109 2831 4275 
Q 2628 4441 2284 4441 
Q 1678 4441 1381 3981 
Q 1084 3522 1075 2569 
z
" transform="scale(0.015625)"/>
       </defs>
       <use xlink:href="#DejaVuSerif-36"/>
       <use xlink:href="#DejaVuSerif-30" transform="translate(63.623047 0)"/>
      </g>
     </g>
    </g>
    <g id="xtick_5">
     <g id="line2d_9">
      <path d="M 624.095574 379.647031 
L 624.095574 23.147031 
" clip-path="url(#p78744f9af7)" style="fill: none; stroke: #b0b0b0; stroke-opacity: 0.3; stroke-width: 0.8; stroke-linecap: square"/>
     </g>
     <g id="line2d_10">
      <g>
       <use xlink:href="#m48ec8ec1fa" x="624.095574" y="379.647031" style="stroke: #000000; stroke-width: 0.8"/>
      </g>
     </g>
     <g id="text_5">
      <!-- 80 -->
      <g transform="translate(617.096824 395.005313) scale(0.11 -0.11)">
       <defs>
        <path id="DejaVuSerif-38" d="M 2981 1275 
Q 2981 1775 2732 2051 
Q 2484 2328 2034 2328 
Q 1584 2328 1336 2051 
Q 1088 1775 1088 1275 
Q 1088 772 1336 495 
Q 1584 219 2034 219 
Q 2484 219 2732 495 
Q 2981 772 2981 1275 
z
M 2853 3541 
Q 2853 3966 2637 4203 
Q 2422 4441 2034 4441 
Q 1650 4441 1433 4203 
Q 1216 3966 1216 3541 
Q 1216 3113 1433 2875 
Q 1650 2638 2034 2638 
Q 2422 2638 2637 2875 
Q 2853 3113 2853 3541 
z
M 2516 2484 
Q 3047 2413 3344 2092 
Q 3641 1772 3641 1275 
Q 3641 619 3225 264 
Q 2809 -91 2034 -91 
Q 1263 -91 845 264 
Q 428 619 428 1275 
Q 428 1772 725 2092 
Q 1022 2413 1556 2484 
Q 1084 2569 832 2842 
Q 581 3116 581 3541 
Q 581 4103 968 4426 
Q 1356 4750 2034 4750 
Q 2713 4750 3100 4426 
Q 3488 4103 3488 3541 
Q 3488 3116 3236 2842 
Q 2984 2569 2516 2484 
z
" transform="scale(0.015625)"/>
       </defs>
       <use xlink:href="#DejaVuSerif-38"/>
       <use xlink:href="#DejaVuSerif-30" transform="translate(63.623047 0)"/>
      </g>
     </g>
    </g>
    <g id="text_6">
     <!-- COBYLA iteration -->
     <g transform="translate(324.812344 410.411094) scale(0.12 -0.12)">
      <defs>
       <path id="DejaVuSerif-43" d="M 4513 1234 
Q 4306 581 3820 245 
Q 3334 -91 2591 -91 
Q 2134 -91 1743 65 
Q 1353 222 1050 525 
Q 700 875 529 1320 
Q 359 1766 359 2328 
Q 359 3416 987 4083 
Q 1616 4750 2644 4750 
Q 3025 4750 3456 4650 
Q 3888 4550 4384 4347 
L 4384 3272 
L 4031 3272 
Q 3916 3859 3567 4137 
Q 3219 4416 2591 4416 
Q 1844 4416 1459 3886 
Q 1075 3356 1075 2328 
Q 1075 1303 1459 773 
Q 1844 244 2591 244 
Q 3113 244 3450 492 
Q 3788 741 3938 1234 
L 4513 1234 
z
" transform="scale(0.015625)"/>
       <path id="DejaVuSerif-4f" d="M 2625 244 
Q 3391 244 3781 770 
Q 4172 1297 4172 2328 
Q 4172 3363 3781 3889 
Q 3391 4416 2625 4416 
Q 1856 4416 1465 3889 
Q 1075 3363 1075 2328 
Q 1075 1297 1465 770 
Q 1856 244 2625 244 
z
M 2625 -91 
Q 2150 -91 1751 65 
Q 1353 222 1050 525 
Q 700 875 529 1319 
Q 359 1763 359 2328 
Q 359 2894 529 3339 
Q 700 3784 1050 4134 
Q 1356 4441 1750 4595 
Q 2144 4750 2625 4750 
Q 3641 4750 4266 4084 
Q 4891 3419 4891 2328 
Q 4891 1769 4719 1320 
Q 4547 872 4197 525 
Q 3891 219 3497 64 
Q 3103 -91 2625 -91 
z
" transform="scale(0.015625)"/>
       <path id="DejaVuSerif-42" d="M 1581 331 
L 2516 331 
Q 3078 331 3337 575 
Q 3597 819 3597 1350 
Q 3597 1878 3339 2120 
Q 3081 2363 2516 2363 
L 1581 2363 
L 1581 331 
z
M 1581 2694 
L 2375 2694 
Q 2888 2694 3123 2891 
Q 3359 3088 3359 3513 
Q 3359 3941 3123 4136 
Q 2888 4331 2375 4331 
L 1581 4331 
L 1581 2694 
z
M 353 0 
L 353 331 
L 947 331 
L 947 4331 
L 353 4331 
L 353 4666 
L 2656 4666 
Q 3363 4666 3720 4377 
Q 4078 4088 4078 3513 
Q 4078 3097 3829 2850 
Q 3581 2603 3103 2547 
Q 3697 2472 4005 2167 
Q 4313 1863 4313 1350 
Q 4313 656 3875 328 
Q 3438 0 2509 0 
L 353 0 
z
" transform="scale(0.015625)"/>
       <path id="DejaVuSerif-59" d="M 1209 0 
L 1209 331 
L 1806 331 
L 1806 2009 
L 366 4331 
L -72 4331 
L -72 4666 
L 1663 4666 
L 1663 4331 
L 1119 4331 
L 2284 2444 
L 3450 4331 
L 2925 4331 
L 2925 4666 
L 4281 4666 
L 4281 4331 
L 3841 4331 
L 2438 2069 
L 2438 331 
L 3034 331 
L 3034 0 
L 1209 0 
z
" transform="scale(0.015625)"/>
       <path id="DejaVuSerif-4c" d="M 353 0 
L 353 331 
L 947 331 
L 947 4331 
L 353 4331 
L 353 4666 
L 2175 4666 
L 2175 4331 
L 1581 4331 
L 1581 384 
L 3713 384 
L 3713 1166 
L 4097 1166 
L 4097 0 
L 353 0 
z
" transform="scale(0.015625)"/>
       <path id="DejaVuSerif-41" d="M 1281 1691 
L 2994 1691 
L 2138 3909 
L 1281 1691 
z
M -38 0 
L -38 331 
L 372 331 
L 2034 4666 
L 2559 4666 
L 4225 331 
L 4684 331 
L 4684 0 
L 2988 0 
L 2988 331 
L 3506 331 
L 3116 1356 
L 1153 1356 
L 763 331 
L 1275 331 
L 1275 0 
L -38 0 
z
" transform="scale(0.015625)"/>
       <path id="DejaVuSerif-20" transform="scale(0.015625)"/>
       <path id="DejaVuSerif-69" d="M 622 4353 
Q 622 4497 726 4603 
Q 831 4709 978 4709 
Q 1122 4709 1226 4603 
Q 1331 4497 1331 4353 
Q 1331 4206 1228 4103 
Q 1125 4000 978 4000 
Q 831 4000 726 4103 
Q 622 4206 622 4353 
z
M 1356 331 
L 1900 331 
L 1900 0 
L 231 0 
L 231 331 
L 781 331 
L 781 2988 
L 231 2988 
L 231 3322 
L 1356 3322 
L 1356 331 
z
" transform="scale(0.015625)"/>
       <path id="DejaVuSerif-74" d="M 691 2988 
L 184 2988 
L 184 3322 
L 691 3322 
L 691 4353 
L 1269 4353 
L 1269 3322 
L 2350 3322 
L 2350 2988 
L 1269 2988 
L 1269 878 
Q 1269 456 1350 337 
Q 1431 219 1650 219 
Q 1875 219 1978 351 
Q 2081 484 2088 781 
L 2522 781 
Q 2497 328 2275 118 
Q 2053 -91 1600 -91 
Q 1103 -91 897 129 
Q 691 350 691 878 
L 691 2988 
z
" transform="scale(0.015625)"/>
       <path id="DejaVuSerif-65" d="M 3469 1600 
L 991 1600 
L 991 1575 
Q 991 903 1244 561 
Q 1497 219 1991 219 
Q 2369 219 2611 417 
Q 2853 616 2950 1006 
L 3413 1006 
Q 3275 459 2904 184 
Q 2534 -91 1931 -91 
Q 1203 -91 761 389 
Q 319 869 319 1663 
Q 319 2450 753 2931 
Q 1188 3413 1894 3413 
Q 2647 3413 3050 2948 
Q 3453 2484 3469 1600 
z
M 2791 1931 
Q 2772 2513 2545 2808 
Q 2319 3103 1894 3103 
Q 1497 3103 1269 2806 
Q 1041 2509 991 1931 
L 2791 1931 
z
" transform="scale(0.015625)"/>
       <path id="DejaVuSerif-72" d="M 3059 3328 
L 3059 2497 
L 2728 2497 
Q 2713 2744 2591 2866 
Q 2469 2988 2234 2988 
Q 1809 2988 1582 2694 
Q 1356 2400 1356 1850 
L 1356 331 
L 2022 331 
L 2022 0 
L 263 0 
L 263 331 
L 781 331 
L 781 2994 
L 231 2994 
L 231 3322 
L 1356 3322 
L 1356 2731 
Q 1525 3078 1790 3245 
Q 2056 3413 2438 3413 
Q 2578 3413 2733 3391 
Q 2888 3369 3059 3328 
z
" transform="scale(0.015625)"/>
       <path id="DejaVuSerif-61" d="M 2547 1044 
L 2547 1747 
L 1806 1747 
Q 1378 1747 1168 1562 
Q 959 1378 959 997 
Q 959 650 1171 447 
Q 1384 244 1747 244 
Q 2106 244 2326 466 
Q 2547 688 2547 1044 
z
M 3122 2075 
L 3122 331 
L 3634 331 
L 3634 0 
L 2547 0 
L 2547 359 
Q 2356 128 2106 18 
Q 1856 -91 1522 -91 
Q 969 -91 644 203 
Q 319 497 319 997 
Q 319 1513 691 1797 
Q 1063 2081 1741 2081 
L 2547 2081 
L 2547 2309 
Q 2547 2688 2317 2895 
Q 2088 3103 1672 3103 
Q 1328 3103 1125 2947 
Q 922 2791 872 2484 
L 575 2484 
L 575 3156 
Q 875 3284 1158 3348 
Q 1441 3413 1709 3413 
Q 2400 3413 2761 3070 
Q 3122 2728 3122 2075 
z
" transform="scale(0.015625)"/>
       <path id="DejaVuSerif-6f" d="M 1925 219 
Q 2388 219 2623 584 
Q 2859 950 2859 1663 
Q 2859 2375 2623 2739 
Q 2388 3103 1925 3103 
Q 1463 3103 1227 2739 
Q 991 2375 991 1663 
Q 991 950 1228 584 
Q 1466 219 1925 219 
z
M 1925 -91 
Q 1200 -91 759 389 
Q 319 869 319 1663 
Q 319 2456 758 2934 
Q 1197 3413 1925 3413 
Q 2653 3413 3092 2934 
Q 3531 2456 3531 1663 
Q 3531 869 3092 389 
Q 2653 -91 1925 -91 
z
" transform="scale(0.015625)"/>
       <path id="DejaVuSerif-6e" d="M 263 0 
L 263 331 
L 781 331 
L 781 2988 
L 231 2988 
L 231 3322 
L 1356 3322 
L 1356 2731 
Q 1516 3069 1770 3241 
Q 2025 3413 2363 3413 
Q 2913 3413 3172 3097 
Q 3431 2781 3431 2113 
L 3431 331 
L 3944 331 
L 3944 0 
L 2356 0 
L 2356 331 
L 2853 331 
L 2853 1931 
Q 2853 2541 2703 2767 
Q 2553 2994 2175 2994 
Q 1775 2994 1565 2701 
Q 1356 2409 1356 1850 
L 1356 331 
L 1856 331 
L 1856 0 
L 263 0 
z
" transform="scale(0.015625)"/>
      </defs>
      <use xlink:href="#DejaVuSerif-43"/>
      <use xlink:href="#DejaVuSerif-4f" transform="translate(76.513672 0)"/>
      <use xlink:href="#DejaVuSerif-42" transform="translate(158.496094 0)"/>
      <use xlink:href="#DejaVuSerif-59" transform="translate(230.232422 0)"/>
      <use xlink:href="#DejaVuSerif-4c" transform="translate(296.248047 0)"/>
      <use xlink:href="#DejaVuSerif-41" transform="translate(362.654297 0)"/>
      <use xlink:href="#DejaVuSerif-20" transform="translate(434.871094 0)"/>
      <use xlink:href="#DejaVuSerif-69" transform="translate(466.658203 0)"/>
      <use xlink:href="#DejaVuSerif-74" transform="translate(498.640625 0)"/>
      <use xlink:href="#DejaVuSerif-65" transform="translate(538.826172 0)"/>
      <use xlink:href="#DejaVuSerif-72" transform="translate(598.005859 0)"/>
      <use xlink:href="#DejaVuSerif-61" transform="translate(645.808594 0)"/>
      <use xlink:href="#DejaVuSerif-74" transform="translate(705.427734 0)"/>
      <use xlink:href="#DejaVuSerif-69" transform="translate(745.613281 0)"/>
      <use xlink:href="#DejaVuSerif-6f" transform="translate(777.595703 0)"/>
      <use xlink:href="#DejaVuSerif-6e" transform="translate(837.800781 0)"/>
     </g>
    </g>
   </g>
   <g id="matplotlib.axis_2">
    <g id="ytick_1">
     <g id="line2d_11">
      <path d="M 56.845469 363.442486 
L 701.045469 363.442486 
" clip-path="url(#p78744f9af7)" style="fill: none; stroke: #b0b0b0; stroke-opacity: 0.3; stroke-width: 0.8; stroke-linecap: square"/>
     </g>
     <g id="line2d_12">
      <defs>
       <path id="mdd6e2a7f08" d="M 0 0 
L -3.5 0 
" style="stroke: #000000; stroke-width: 0.8"/>
      </defs>
      <g>
       <use xlink:href="#mdd6e2a7f08" x="56.845469" y="363.442486" style="stroke: #000000; stroke-width: 0.8"/>
      </g>
     </g>
     <g id="text_7">
      <!-- −2.0 -->
      <g transform="translate(23.134375 367.621626) scale(0.11 -0.11)">
       <defs>
        <path id="DejaVuSerif-2212" d="M 678 2259 
L 4684 2259 
L 4684 1753 
L 678 1753 
L 678 2259 
z
" transform="scale(0.015625)"/>
        <path id="DejaVuSerif-2e" d="M 603 325 
Q 603 500 722 622 
Q 841 744 1019 744 
Q 1191 744 1312 622 
Q 1434 500 1434 325 
Q 1434 153 1312 31 
Q 1191 -91 1019 -91 
Q 841 -91 722 29 
Q 603 150 603 325 
z
" transform="scale(0.015625)"/>
       </defs>
       <use xlink:href="#DejaVuSerif-2212"/>
       <use xlink:href="#DejaVuSerif-32" transform="translate(83.789062 0)"/>
       <use xlink:href="#DejaVuSerif-2e" transform="translate(147.412109 0)"/>
       <use xlink:href="#DejaVuSerif-30" transform="translate(179.199219 0)"/>
      </g>
     </g>
    </g>
    <g id="ytick_2">
     <g id="line2d_13">
      <path d="M 56.845469 314.810806 
L 701.045469 314.810806 
" clip-path="url(#p78744f9af7)" style="fill: none; stroke: #b0b0b0; stroke-opacity: 0.3; stroke-width: 0.8; stroke-linecap: square"/>
     </g>
     <g id="line2d_14">
      <g>
       <use xlink:href="#mdd6e2a7f08" x="56.845469" y="314.810806" style="stroke: #000000; stroke-width: 0.8"/>
      </g>
     </g>
     <g id="text_8">
      <!-- −1.8 -->
      <g transform="translate(23.134375 318.989946) scale(0.11 -0.11)">
       <defs>
        <path id="DejaVuSerif-31" d="M 909 0 
L 909 331 
L 1722 331 
L 1722 4213 
L 781 3603 
L 781 4013 
L 1919 4750 
L 2350 4750 
L 2350 331 
L 3163 331 
L 3163 0 
L 909 0 
z
" transform="scale(0.015625)"/>
       </defs>
       <use xlink:href="#DejaVuSerif-2212"/>
       <use xlink:href="#DejaVuSerif-31" transform="translate(83.789062 0)"/>
       <use xlink:href="#DejaVuSerif-2e" transform="translate(147.412109 0)"/>
       <use xlink:href="#DejaVuSerif-38" transform="translate(179.199219 0)"/>
      </g>
     </g>
    </g>
    <g id="ytick_3">
     <g id="line2d_15">
      <path d="M 56.845469 266.179126 
L 701.045469 266.179126 
" clip-path="url(#p78744f9af7)" style="fill: none; stroke: #b0b0b0; stroke-opacity: 0.3; stroke-width: 0.8; stroke-linecap: square"/>
     </g>
     <g id="line2d_16">
      <g>
       <use xlink:href="#mdd6e2a7f08" x="56.845469" y="266.179126" style="stroke: #000000; stroke-width: 0.8"/>
      </g>
     </g>
     <g id="text_9">
      <!-- −1.6 -->
      <g transform="translate(23.134375 270.358267) scale(0.11 -0.11)">
       <use xlink:href="#DejaVuSerif-2212"/>
       <use xlink:href="#DejaVuSerif-31" transform="translate(83.789062 0)"/>
       <use xlink:href="#DejaVuSerif-2e" transform="translate(147.412109 0)"/>
       <use xlink:href="#DejaVuSerif-36" transform="translate(179.199219 0)"/>
      </g>
     </g>
    </g>
    <g id="ytick_4">
     <g id="line2d_17">
      <path d="M 56.845469 217.547446 
L 701.045469 217.547446 
" clip-path="url(#p78744f9af7)" style="fill: none; stroke: #b0b0b0; stroke-opacity: 0.3; stroke-width: 0.8; stroke-linecap: square"/>
     </g>
     <g id="line2d_18">
      <g>
       <use xlink:href="#mdd6e2a7f08" x="56.845469" y="217.547446" style="stroke: #000000; stroke-width: 0.8"/>
      </g>
     </g>
     <g id="text_10">
      <!-- −1.4 -->
      <g transform="translate(23.134375 221.726587) scale(0.11 -0.11)">
       <use xlink:href="#DejaVuSerif-2212"/>
       <use xlink:href="#DejaVuSerif-31" transform="translate(83.789062 0)"/>
       <use xlink:href="#DejaVuSerif-2e" transform="translate(147.412109 0)"/>
       <use xlink:href="#DejaVuSerif-34" transform="translate(179.199219 0)"/>
      </g>
     </g>
    </g>
    <g id="ytick_5">
     <g id="line2d_19">
      <path d="M 56.845469 168.915766 
L 701.045469 168.915766 
" clip-path="url(#p78744f9af7)" style="fill: none; stroke: #b0b0b0; stroke-opacity: 0.3; stroke-width: 0.8; stroke-linecap: square"/>
     </g>
     <g id="line2d_20">
      <g>
       <use xlink:href="#mdd6e2a7f08" x="56.845469" y="168.915766" style="stroke: #000000; stroke-width: 0.8"/>
      </g>
     </g>
     <g id="text_11">
      <!-- −1.2 -->
      <g transform="translate(23.134375 173.094907) scale(0.11 -0.11)">
       <use xlink:href="#DejaVuSerif-2212"/>
       <use xlink:href="#DejaVuSerif-31" transform="translate(83.789062 0)"/>
       <use xlink:href="#DejaVuSerif-2e" transform="translate(147.412109 0)"/>
       <use xlink:href="#DejaVuSerif-32" transform="translate(179.199219 0)"/>
      </g>
     </g>
    </g>
    <g id="ytick_6">
     <g id="line2d_21">
      <path d="M 56.845469 120.284086 
L 701.045469 120.284086 
" clip-path="url(#p78744f9af7)" style="fill: none; stroke: #b0b0b0; stroke-opacity: 0.3; stroke-width: 0.8; stroke-linecap: square"/>
     </g>
     <g id="line2d_22">
      <g>
       <use xlink:href="#mdd6e2a7f08" x="56.845469" y="120.284086" style="stroke: #000000; stroke-width: 0.8"/>
      </g>
     </g>
     <g id="text_12">
      <!-- −1.0 -->
      <g transform="translate(23.134375 124.463227) scale(0.11 -0.11)">
       <use xlink:href="#DejaVuSerif-2212"/>
       <use xlink:href="#DejaVuSerif-31" transform="translate(83.789062 0)"/>
       <use xlink:href="#DejaVuSerif-2e" transform="translate(147.412109 0)"/>
       <use xlink:href="#DejaVuSerif-30" transform="translate(179.199219 0)"/>
      </g>
     </g>
    </g>
    <g id="ytick_7">
     <g id="line2d_23">
      <path d="M 56.845469 71.652406 
L 701.045469 71.652406 
" clip-path="url(#p78744f9af7)" style="fill: none; stroke: #b0b0b0; stroke-opacity: 0.3; stroke-width: 0.8; stroke-linecap: square"/>
     </g>
     <g id="line2d_24">
      <g>
       <use xlink:href="#mdd6e2a7f08" x="56.845469" y="71.652406" style="stroke: #000000; stroke-width: 0.8"/>
      </g>
     </g>
     <g id="text_13">
      <!-- −0.8 -->
      <g transform="translate(23.134375 75.831547) scale(0.11 -0.11)">
       <use xlink:href="#DejaVuSerif-2212"/>
       <use xlink:href="#DejaVuSerif-30" transform="translate(83.789062 0)"/>
       <use xlink:href="#DejaVuSerif-2e" transform="translate(147.412109 0)"/>
       <use xlink:href="#DejaVuSerif-38" transform="translate(179.199219 0)"/>
      </g>
     </g>
    </g>
    <g id="text_14">
     <!-- expectation ⟨H_C⟩ -->
     <g transform="translate(16.305 256.291406) rotate(-90) scale(0.12 -0.12)">
      <defs>
       <path id="DejaVuSerif-78" d="M 1863 2028 
L 2559 2988 
L 2113 2988 
L 2113 3322 
L 3391 3322 
L 3391 2988 
L 2950 2988 
L 2059 1759 
L 3097 331 
L 3531 331 
L 3531 0 
L 1997 0 
L 1997 331 
L 2419 331 
L 1697 1325 
L 972 331 
L 1403 331 
L 1403 0 
L 141 0 
L 141 331 
L 581 331 
L 1497 1594 
L 488 2988 
L 78 2988 
L 78 3322 
L 1563 3322 
L 1563 2988 
L 1166 2988 
L 1863 2028 
z
" transform="scale(0.015625)"/>
       <path id="DejaVuSerif-70" d="M 1313 1825 
L 1313 1497 
Q 1313 897 1542 583 
Q 1772 269 2209 269 
Q 2650 269 2876 622 
Q 3103 975 3103 1663 
Q 3103 2353 2876 2703 
Q 2650 3053 2209 3053 
Q 1772 3053 1542 2737 
Q 1313 2422 1313 1825 
z
M 738 2988 
L 184 2988 
L 184 3322 
L 1313 3322 
L 1313 2803 
Q 1481 3116 1742 3264 
Q 2003 3413 2388 3413 
Q 3000 3413 3387 2928 
Q 3775 2444 3775 1663 
Q 3775 881 3387 395 
Q 3000 -91 2388 -91 
Q 2003 -91 1742 57 
Q 1481 206 1313 519 
L 1313 -997 
L 1856 -997 
L 1856 -1331 
L 184 -1331 
L 184 -997 
L 738 -997 
L 738 2988 
z
" transform="scale(0.015625)"/>
       <path id="DejaVuSerif-63" d="M 3291 997 
Q 3169 466 2822 187 
Q 2475 -91 1925 -91 
Q 1200 -91 759 389 
Q 319 869 319 1663 
Q 319 2459 759 2936 
Q 1200 3413 1925 3413 
Q 2241 3413 2553 3339 
Q 2866 3266 3181 3116 
L 3181 2266 
L 2847 2266 
Q 2781 2703 2561 2903 
Q 2341 3103 1931 3103 
Q 1466 3103 1228 2742 
Q 991 2381 991 1663 
Q 991 944 1227 581 
Q 1463 219 1931 219 
Q 2303 219 2525 412 
Q 2747 606 2828 997 
L 3291 997 
z
" transform="scale(0.015625)"/>
       <path id="DejaVuSerif-27e8" d="M 572 2006 
L 1453 4856 
L 1984 4856 
L 1103 2006 
L 1984 -844 
L 1453 -844 
L 572 2006 
z
" transform="scale(0.015625)"/>
       <path id="DejaVuSerif-48" d="M 353 0 
L 353 331 
L 947 331 
L 947 4331 
L 353 4331 
L 353 4666 
L 2175 4666 
L 2175 4331 
L 1581 4331 
L 1581 2719 
L 4000 2719 
L 4000 4331 
L 3406 4331 
L 3406 4666 
L 5228 4666 
L 5228 4331 
L 4634 4331 
L 4634 331 
L 5228 331 
L 5228 0 
L 3406 0 
L 3406 331 
L 4000 331 
L 4000 2338 
L 1581 2338 
L 1581 331 
L 2175 331 
L 2175 0 
L 353 0 
z
" transform="scale(0.015625)"/>
       <path id="DejaVuSerif-5f" d="M 3200 -1259 
L 3200 -1509 
L 0 -1509 
L 0 -1259 
L 3200 -1259 
z
" transform="scale(0.015625)"/>
       <path id="DejaVuSerif-27e9" d="M 1925 2006 
L 1044 -844 
L 513 -844 
L 1394 2006 
L 513 4856 
L 1044 4856 
L 1925 2006 
z
" transform="scale(0.015625)"/>
      </defs>
      <use xlink:href="#DejaVuSerif-65"/>
      <use xlink:href="#DejaVuSerif-78" transform="translate(59.179688 0)"/>
      <use xlink:href="#DejaVuSerif-70" transform="translate(115.576172 0)"/>
      <use xlink:href="#DejaVuSerif-65" transform="translate(179.589844 0)"/>
      <use xlink:href="#DejaVuSerif-63" transform="translate(238.769531 0)"/>
      <use xlink:href="#DejaVuSerif-74" transform="translate(294.775391 0)"/>
      <use xlink:href="#DejaVuSerif-61" transform="translate(334.960938 0)"/>
      <use xlink:href="#DejaVuSerif-74" transform="translate(394.580078 0)"/>
      <use xlink:href="#DejaVuSerif-69" transform="translate(434.765625 0)"/>
      <use xlink:href="#DejaVuSerif-6f" transform="translate(466.748047 0)"/>
      <use xlink:href="#DejaVuSerif-6e" transform="translate(526.953125 0)"/>
      <use xlink:href="#DejaVuSerif-20" transform="translate(591.357422 0)"/>
      <use xlink:href="#DejaVuSerif-27e8" transform="translate(623.144531 0)"/>
      <use xlink:href="#DejaVuSerif-48" transform="translate(662.158203 0)"/>
      <use xlink:href="#DejaVuSerif-5f" transform="translate(749.365234 0)"/>
      <use xlink:href="#DejaVuSerif-43" transform="translate(799.365234 0)"/>
      <use xlink:href="#DejaVuSerif-27e9" transform="translate(875.878906 0)"/>
     </g>
    </g>
   </g>
   <g id="line2d_25">
    <path d="M 86.127287 188.735159 
L 92.937012 151.081123 
L 99.746737 165.904276 
L 106.556462 229.506847 
L 113.366188 230.314391 
L 120.175913 220.113498 
L 126.985638 268.735135 
L 133.795363 352.512564 
L 140.605088 39.351577 
L 147.414813 285.567376 
L 154.224539 357.329985 
L 161.034264 320.519199 
L 167.843989 359.4821 
L 174.653714 355.053895 
L 181.463439 340.973551 
L 188.273164 358.79703 
L 195.082889 363.143912 
L 201.892615 362.658342 
L 208.70234 363.155905 
L 215.512065 362.285596 
L 222.32179 363.357763 
L 229.131515 362.874651 
L 235.94124 363.300577 
L 242.750966 363.37853 
L 249.560691 363.407949 
L 256.370416 363.427634 
L 263.180141 363.432081 
L 269.989866 363.441879 
L 276.799591 363.434819 
L 283.609317 363.440768 
L 290.419042 363.441435 
L 297.228767 363.437579 
L 304.038492 363.441324 
L 310.848217 363.441568 
L 317.657942 363.442255 
L 324.467667 363.442369 
L 331.277393 363.44245 
L 338.087118 363.44248 
L 344.896843 363.442278 
L 351.706568 363.442459 
L 358.516293 363.442473 
L 365.326018 363.442448 
L 372.135744 363.442472 
L 378.945469 363.442479 
L 385.755194 363.442483 
L 392.564919 363.442481 
L 399.374644 363.442484 
L 406.184369 363.442484 
L 412.994095 363.442484 
L 419.80382 363.442485 
L 426.613545 363.442484 
L 433.42327 363.442485 
L 440.232995 363.442485 
L 447.04272 363.442486 
L 453.852445 363.442486 
L 460.662171 363.442486 
L 467.471896 363.442486 
L 474.281621 363.442486 
L 481.091346 363.442486 
L 487.901071 363.442486 
L 494.710796 363.442486 
L 501.520522 363.442486 
L 508.330247 363.442486 
L 515.139972 363.442486 
L 521.949697 363.442486 
L 528.759422 363.442486 
L 535.569147 363.442486 
L 542.378873 363.442486 
L 549.188598 363.442486 
L 555.998323 363.442486 
L 562.808048 363.442486 
L 569.617773 363.442486 
L 576.427498 363.442486 
L 583.237224 363.442486 
L 590.046949 363.442486 
L 596.856674 363.442486 
L 603.666399 363.442486 
L 610.476124 363.442486 
L 617.285849 363.442486 
L 624.095574 363.442486 
L 630.9053 363.442486 
L 637.715025 363.442486 
L 644.52475 363.442486 
L 651.334475 363.442486 
L 658.1442 363.442486 
L 664.953925 363.442486 
L 671.763651 363.442486 
" clip-path="url(#p78744f9af7)" style="fill: none; stroke: #8c8c8c; stroke-opacity: 0.9; stroke-width: 1.2; stroke-linecap: square"/>
    <defs>
     <path id="ma01023ae9f" d="M 0 2 
C 0.530406 2 1.03916 1.789267 1.414214 1.414214 
C 1.789267 1.03916 2 0.530406 2 0 
C 2 -0.530406 1.789267 -1.03916 1.414214 -1.414214 
C 1.03916 -1.789267 0.530406 -2 0 -2 
C -0.530406 -2 -1.03916 -1.789267 -1.414214 -1.414214 
C -1.789267 -1.03916 -2 -0.530406 -2 0 
C -2 0.530406 -1.789267 1.03916 -1.414214 1.414214 
C -1.03916 1.789267 -0.530406 2 0 2 
z
" style="stroke: #8c8c8c; stroke-opacity: 0.9"/>
    </defs>
    <g clip-path="url(#p78744f9af7)">
     <use xlink:href="#ma01023ae9f" x="86.127287" y="188.735159" style="fill: #8c8c8c; fill-opacity: 0.9; stroke: #8c8c8c; stroke-opacity: 0.9"/>
     <use xlink:href="#ma01023ae9f" x="92.937012" y="151.081123" style="fill: #8c8c8c; fill-opacity: 0.9; stroke: #8c8c8c; stroke-opacity: 0.9"/>
     <use xlink:href="#ma01023ae9f" x="99.746737" y="165.904276" style="fill: #8c8c8c; fill-opacity: 0.9; stroke: #8c8c8c; stroke-opacity: 0.9"/>
     <use xlink:href="#ma01023ae9f" x="106.556462" y="229.506847" style="fill: #8c8c8c; fill-opacity: 0.9; stroke: #8c8c8c; stroke-opacity: 0.9"/>
     <use xlink:href="#ma01023ae9f" x="113.366188" y="230.314391" style="fill: #8c8c8c; fill-opacity: 0.9; stroke: #8c8c8c; stroke-opacity: 0.9"/>
     <use xlink:href="#ma01023ae9f" x="120.175913" y="220.113498" style="fill: #8c8c8c; fill-opacity: 0.9; stroke: #8c8c8c; stroke-opacity: 0.9"/>
     <use xlink:href="#ma01023ae9f" x="126.985638" y="268.735135" style="fill: #8c8c8c; fill-opacity: 0.9; stroke: #8c8c8c; stroke-opacity: 0.9"/>
     <use xlink:href="#ma01023ae9f" x="133.795363" y="352.512564" style="fill: #8c8c8c; fill-opacity: 0.9; stroke: #8c8c8c; stroke-opacity: 0.9"/>
     <use xlink:href="#ma01023ae9f" x="140.605088" y="39.351577" style="fill: #8c8c8c; fill-opacity: 0.9; stroke: #8c8c8c; stroke-opacity: 0.9"/>
     <use xlink:href="#ma01023ae9f" x="147.414813" y="285.567376" style="fill: #8c8c8c; fill-opacity: 0.9; stroke: #8c8c8c; stroke-opacity: 0.9"/>
     <use xlink:href="#ma01023ae9f" x="154.224539" y="357.329985" style="fill: #8c8c8c; fill-opacity: 0.9; stroke: #8c8c8c; stroke-opacity: 0.9"/>
     <use xlink:href="#ma01023ae9f" x="161.034264" y="320.519199" style="fill: #8c8c8c; fill-opacity: 0.9; stroke: #8c8c8c; stroke-opacity: 0.9"/>
     <use xlink:href="#ma01023ae9f" x="167.843989" y="359.4821" style="fill: #8c8c8c; fill-opacity: 0.9; stroke: #8c8c8c; stroke-opacity: 0.9"/>
     <use xlink:href="#ma01023ae9f" x="174.653714" y="355.053895" style="fill: #8c8c8c; fill-opacity: 0.9; stroke: #8c8c8c; stroke-opacity: 0.9"/>
     <use xlink:href="#ma01023ae9f" x="181.463439" y="340.973551" style="fill: #8c8c8c; fill-opacity: 0.9; stroke: #8c8c8c; stroke-opacity: 0.9"/>
     <use xlink:href="#ma01023ae9f" x="188.273164" y="358.79703" style="fill: #8c8c8c; fill-opacity: 0.9; stroke: #8c8c8c; stroke-opacity: 0.9"/>
     <use xlink:href="#ma01023ae9f" x="195.082889" y="363.143912" style="fill: #8c8c8c; fill-opacity: 0.9; stroke: #8c8c8c; stroke-opacity: 0.9"/>
     <use xlink:href="#ma01023ae9f" x="201.892615" y="362.658342" style="fill: #8c8c8c; fill-opacity: 0.9; stroke: #8c8c8c; stroke-opacity: 0.9"/>
     <use xlink:href="#ma01023ae9f" x="208.70234" y="363.155905" style="fill: #8c8c8c; fill-opacity: 0.9; stroke: #8c8c8c; stroke-opacity: 0.9"/>
     <use xlink:href="#ma01023ae9f" x="215.512065" y="362.285596" style="fill: #8c8c8c; fill-opacity: 0.9; stroke: #8c8c8c; stroke-opacity: 0.9"/>
     <use xlink:href="#ma01023ae9f" x="222.32179" y="363.357763" style="fill: #8c8c8c; fill-opacity: 0.9; stroke: #8c8c8c; stroke-opacity: 0.9"/>
     <use xlink:href="#ma01023ae9f" x="229.131515" y="362.874651" style="fill: #8c8c8c; fill-opacity: 0.9; stroke: #8c8c8c; stroke-opacity: 0.9"/>
     <use xlink:href="#ma01023ae9f" x="235.94124" y="363.300577" style="fill: #8c8c8c; fill-opacity: 0.9; stroke: #8c8c8c; stroke-opacity: 0.9"/>
     <use xlink:href="#ma01023ae9f" x="242.750966" y="363.37853" style="fill: #8c8c8c; fill-opacity: 0.9; stroke: #8c8c8c; stroke-opacity: 0.9"/>
     <use xlink:href="#ma01023ae9f" x="249.560691" y="363.407949" style="fill: #8c8c8c; fill-opacity: 0.9; stroke: #8c8c8c; stroke-opacity: 0.9"/>
     <use xlink:href="#ma01023ae9f" x="256.370416" y="363.427634" style="fill: #8c8c8c; fill-opacity: 0.9; stroke: #8c8c8c; stroke-opacity: 0.9"/>
     <use xlink:href="#ma01023ae9f" x="263.180141" y="363.432081" style="fill: #8c8c8c; fill-opacity: 0.9; stroke: #8c8c8c; stroke-opacity: 0.9"/>
     <use xlink:href="#ma01023ae9f" x="269.989866" y="363.441879" style="fill: #8c8c8c; fill-opacity: 0.9; stroke: #8c8c8c; stroke-opacity: 0.9"/>
     <use xlink:href="#ma01023ae9f" x="276.799591" y="363.434819" style="fill: #8c8c8c; fill-opacity: 0.9; stroke: #8c8c8c; stroke-opacity: 0.9"/>
     <use xlink:href="#ma01023ae9f" x="283.609317" y="363.440768" style="fill: #8c8c8c; fill-opacity: 0.9; stroke: #8c8c8c; stroke-opacity: 0.9"/>
     <use xlink:href="#ma01023ae9f" x="290.419042" y="363.441435" style="fill: #8c8c8c; fill-opacity: 0.9; stroke: #8c8c8c; stroke-opacity: 0.9"/>
     <use xlink:href="#ma01023ae9f" x="297.228767" y="363.437579" style="fill: #8c8c8c; fill-opacity: 0.9; stroke: #8c8c8c; stroke-opacity: 0.9"/>
     <use xlink:href="#ma01023ae9f" x="304.038492" y="363.441324" style="fill: #8c8c8c; fill-opacity: 0.9; stroke: #8c8c8c; stroke-opacity: 0.9"/>
     <use xlink:href="#ma01023ae9f" x="310.848217" y="363.441568" style="fill: #8c8c8c; fill-opacity: 0.9; stroke: #8c8c8c; stroke-opacity: 0.9"/>
     <use xlink:href="#ma01023ae9f" x="317.657942" y="363.442255" style="fill: #8c8c8c; fill-opacity: 0.9; stroke: #8c8c8c; stroke-opacity: 0.9"/>
     <use xlink:href="#ma01023ae9f" x="324.467667" y="363.442369" style="fill: #8c8c8c; fill-opacity: 0.9; stroke: #8c8c8c; stroke-opacity: 0.9"/>
     <use xlink:href="#ma01023ae9f" x="331.277393" y="363.44245" style="fill: #8c8c8c; fill-opacity: 0.9; stroke: #8c8c8c; stroke-opacity: 0.9"/>
     <use xlink:href="#ma01023ae9f" x="338.087118" y="363.44248" style="fill: #8c8c8c; fill-opacity: 0.9; stroke: #8c8c8c; stroke-opacity: 0.9"/>
     <use xlink:href="#ma01023ae9f" x="344.896843" y="363.442278" style="fill: #8c8c8c; fill-opacity: 0.9; stroke: #8c8c8c; stroke-opacity: 0.9"/>
     <use xlink:href="#ma01023ae9f" x="351.706568" y="363.442459" style="fill: #8c8c8c; fill-opacity: 0.9; stroke: #8c8c8c; stroke-opacity: 0.9"/>
     <use xlink:href="#ma01023ae9f" x="358.516293" y="363.442473" style="fill: #8c8c8c; fill-opacity: 0.9; stroke: #8c8c8c; stroke-opacity: 0.9"/>
     <use xlink:href="#ma01023ae9f" x="365.326018" y="363.442448" style="fill: #8c8c8c; fill-opacity: 0.9; stroke: #8c8c8c; stroke-opacity: 0.9"/>
     <use xlink:href="#ma01023ae9f" x="372.135744" y="363.442472" style="fill: #8c8c8c; fill-opacity: 0.9; stroke: #8c8c8c; stroke-opacity: 0.9"/>
     <use xlink:href="#ma01023ae9f" x="378.945469" y="363.442479" style="fill: #8c8c8c; fill-opacity: 0.9; stroke: #8c8c8c; stroke-opacity: 0.9"/>
     <use xlink:href="#ma01023ae9f" x="385.755194" y="363.442483" style="fill: #8c8c8c; fill-opacity: 0.9; stroke: #8c8c8c; stroke-opacity: 0.9"/>
     <use xlink:href="#ma01023ae9f" x="392.564919" y="363.442481" style="fill: #8c8c8c; fill-opacity: 0.9; stroke: #8c8c8c; stroke-opacity: 0.9"/>
     <use xlink:href="#ma01023ae9f" x="399.374644" y="363.442484" style="fill: #8c8c8c; fill-opacity: 0.9; stroke: #8c8c8c; stroke-opacity: 0.9"/>
     <use xlink:href="#ma01023ae9f" x="406.184369" y="363.442484" style="fill: #8c8c8c; fill-opacity: 0.9; stroke: #8c8c8c; stroke-opacity: 0.9"/>
     <use xlink:href="#ma01023ae9f" x="412.994095" y="363.442484" style="fill: #8c8c8c; fill-opacity: 0.9; stroke: #8c8c8c; stroke-opacity: 0.9"/>
     <use xlink:href="#ma01023ae9f" x="419.80382" y="363.442485" style="fill: #8c8c8c; fill-opacity: 0.9; stroke: #8c8c8c; stroke-opacity: 0.9"/>
     <use xlink:href="#ma01023ae9f" x="426.613545" y="363.442484" style="fill: #8c8c8c; fill-opacity: 0.9; stroke: #8c8c8c; stroke-opacity: 0.9"/>
     <use xlink:href="#ma01023ae9f" x="433.42327" y="363.442485" style="fill: #8c8c8c; fill-opacity: 0.9; stroke: #8c8c8c; stroke-opacity: 0.9"/>
     <use xlink:href="#ma01023ae9f" x="440.232995" y="363.442485" style="fill: #8c8c8c; fill-opacity: 0.9; stroke: #8c8c8c; stroke-opacity: 0.9"/>
     <use xlink:href="#ma01023ae9f" x="447.04272" y="363.442486" style="fill: #8c8c8c; fill-opacity: 0.9; stroke: #8c8c8c; stroke-opacity: 0.9"/>
     <use xlink:href="#ma01023ae9f" x="453.852445" y="363.442486" style="fill: #8c8c8c; fill-opacity: 0.9; stroke: #8c8c8c; stroke-opacity: 0.9"/>
     <use xlink:href="#ma01023ae9f" x="460.662171" y="363.442486" style="fill: #8c8c8c; fill-opacity: 0.9; stroke: #8c8c8c; stroke-opacity: 0.9"/>
     <use xlink:href="#ma01023ae9f" x="467.471896" y="363.442486" style="fill: #8c8c8c; fill-opacity: 0.9; stroke: #8c8c8c; stroke-opacity: 0.9"/>
     <use xlink:href="#ma01023ae9f" x="474.281621" y="363.442486" style="fill: #8c8c8c; fill-opacity: 0.9; stroke: #8c8c8c; stroke-opacity: 0.9"/>
     <use xlink:href="#ma01023ae9f" x="481.091346" y="363.442486" style="fill: #8c8c8c; fill-opacity: 0.9; stroke: #8c8c8c; stroke-opacity: 0.9"/>
     <use xlink:href="#ma01023ae9f" x="487.901071" y="363.442486" style="fill: #8c8c8c; fill-opacity: 0.9; stroke: #8c8c8c; stroke-opacity: 0.9"/>
     <use xlink:href="#ma01023ae9f" x="494.710796" y="363.442486" style="fill: #8c8c8c; fill-opacity: 0.9; stroke: #8c8c8c; stroke-opacity: 0.9"/>
     <use xlink:href="#ma01023ae9f" x="501.520522" y="363.442486" style="fill: #8c8c8c; fill-opacity: 0.9; stroke: #8c8c8c; stroke-opacity: 0.9"/>
     <use xlink:href="#ma01023ae9f" x="508.330247" y="363.442486" style="fill: #8c8c8c; fill-opacity: 0.9; stroke: #8c8c8c; stroke-opacity: 0.9"/>
     <use xlink:href="#ma01023ae9f" x="515.139972" y="363.442486" style="fill: #8c8c8c; fill-opacity: 0.9; stroke: #8c8c8c; stroke-opacity: 0.9"/>
     <use xlink:href="#ma01023ae9f" x="521.949697" y="363.442486" style="fill: #8c8c8c; fill-opacity: 0.9; stroke: #8c8c8c; stroke-opacity: 0.9"/>
     <use xlink:href="#ma01023ae9f" x="528.759422" y="363.442486" style="fill: #8c8c8c; fill-opacity: 0.9; stroke: #8c8c8c; stroke-opacity: 0.9"/>
     <use xlink:href="#ma01023ae9f" x="535.569147" y="363.442486" style="fill: #8c8c8c; fill-opacity: 0.9; stroke: #8c8c8c; stroke-opacity: 0.9"/>
     <use xlink:href="#ma01023ae9f" x="542.378873" y="363.442486" style="fill: #8c8c8c; fill-opacity: 0.9; stroke: #8c8c8c; stroke-opacity: 0.9"/>
     <use xlink:href="#ma01023ae9f" x="549.188598" y="363.442486" style="fill: #8c8c8c; fill-opacity: 0.9; stroke: #8c8c8c; stroke-opacity: 0.9"/>
     <use xlink:href="#ma01023ae9f" x="555.998323" y="363.442486" style="fill: #8c8c8c; fill-opacity: 0.9; stroke: #8c8c8c; stroke-opacity: 0.9"/>
     <use xlink:href="#ma01023ae9f" x="562.808048" y="363.442486" style="fill: #8c8c8c; fill-opacity: 0.9; stroke: #8c8c8c; stroke-opacity: 0.9"/>
     <use xlink:href="#ma01023ae9f" x="569.617773" y="363.442486" style="fill: #8c8c8c; fill-opacity: 0.9; stroke: #8c8c8c; stroke-opacity: 0.9"/>
     <use xlink:href="#ma01023ae9f" x="576.427498" y="363.442486" style="fill: #8c8c8c; fill-opacity: 0.9; stroke: #8c8c8c; stroke-opacity: 0.9"/>
     <use xlink:href="#ma01023ae9f" x="583.237224" y="363.442486" style="fill: #8c8c8c; fill-opacity: 0.9; stroke: #8c8c8c; stroke-opacity: 0.9"/>
     <use xlink:href="#ma01023ae9f" x="590.046949" y="363.442486" style="fill: #8c8c8c; fill-opacity: 0.9; stroke: #8c8c8c; stroke-opacity: 0.9"/>
     <use xlink:href="#ma01023ae9f" x="596.856674" y="363.442486" style="fill: #8c8c8c; fill-opacity: 0.9; stroke: #8c8c8c; stroke-opacity: 0.9"/>
     <use xlink:href="#ma01023ae9f" x="603.666399" y="363.442486" style="fill: #8c8c8c; fill-opacity: 0.9; stroke: #8c8c8c; stroke-opacity: 0.9"/>
     <use xlink:href="#ma01023ae9f" x="610.476124" y="363.442486" style="fill: #8c8c8c; fill-opacity: 0.9; stroke: #8c8c8c; stroke-opacity: 0.9"/>
     <use xlink:href="#ma01023ae9f" x="617.285849" y="363.442486" style="fill: #8c8c8c; fill-opacity: 0.9; stroke: #8c8c8c; stroke-opacity: 0.9"/>
     <use xlink:href="#ma01023ae9f" x="624.095574" y="363.442486" style="fill: #8c8c8c; fill-opacity: 0.9; stroke: #8c8c8c; stroke-opacity: 0.9"/>
     <use xlink:href="#ma01023ae9f" x="630.9053" y="363.442486" style="fill: #8c8c8c; fill-opacity: 0.9; stroke: #8c8c8c; stroke-opacity: 0.9"/>
     <use xlink:href="#ma01023ae9f" x="637.715025" y="363.442486" style="fill: #8c8c8c; fill-opacity: 0.9; stroke: #8c8c8c; stroke-opacity: 0.9"/>
     <use xlink:href="#ma01023ae9f" x="644.52475" y="363.442486" style="fill: #8c8c8c; fill-opacity: 0.9; stroke: #8c8c8c; stroke-opacity: 0.9"/>
     <use xlink:href="#ma01023ae9f" x="651.334475" y="363.442486" style="fill: #8c8c8c; fill-opacity: 0.9; stroke: #8c8c8c; stroke-opacity: 0.9"/>
     <use xlink:href="#ma01023ae9f" x="658.1442" y="363.442486" style="fill: #8c8c8c; fill-opacity: 0.9; stroke: #8c8c8c; stroke-opacity: 0.9"/>
     <use xlink:href="#ma01023ae9f" x="664.953925" y="363.442486" style="fill: #8c8c8c; fill-opacity: 0.9; stroke: #8c8c8c; stroke-opacity: 0.9"/>
     <use xlink:href="#ma01023ae9f" x="671.763651" y="363.442486" style="fill: #8c8c8c; fill-opacity: 0.9; stroke: #8c8c8c; stroke-opacity: 0.9"/>
    </g>
   </g>
   <g id="line2d_26">
    <path d="M 86.127287 188.735159 
L 92.937012 188.735159 
L 99.746737 188.735159 
L 106.556462 229.506847 
L 113.366188 230.314391 
L 120.175913 230.314391 
L 126.985638 268.735135 
L 133.795363 352.512564 
L 140.605088 352.512564 
L 147.414813 352.512564 
L 154.224539 357.329985 
L 161.034264 357.329985 
L 167.843989 359.4821 
L 174.653714 359.4821 
L 181.463439 359.4821 
L 188.273164 359.4821 
L 195.082889 363.143912 
L 201.892615 363.143912 
L 208.70234 363.155905 
L 215.512065 363.155905 
L 222.32179 363.357763 
L 229.131515 363.357763 
L 235.94124 363.357763 
L 242.750966 363.37853 
L 249.560691 363.407949 
L 256.370416 363.427634 
L 263.180141 363.432081 
L 269.989866 363.441879 
L 276.799591 363.441879 
L 283.609317 363.441879 
L 290.419042 363.441879 
L 297.228767 363.441879 
L 304.038492 363.441879 
L 310.848217 363.441879 
L 317.657942 363.442255 
L 324.467667 363.442369 
L 331.277393 363.44245 
L 338.087118 363.44248 
L 344.896843 363.44248 
L 351.706568 363.44248 
L 358.516293 363.44248 
L 365.326018 363.44248 
L 372.135744 363.44248 
L 378.945469 363.44248 
L 385.755194 363.442483 
L 392.564919 363.442483 
L 399.374644 363.442484 
L 406.184369 363.442484 
L 412.994095 363.442484 
L 419.80382 363.442485 
L 426.613545 363.442485 
L 433.42327 363.442485 
L 440.232995 363.442485 
L 447.04272 363.442486 
L 453.852445 363.442486 
L 460.662171 363.442486 
L 467.471896 363.442486 
L 474.281621 363.442486 
L 481.091346 363.442486 
L 487.901071 363.442486 
L 494.710796 363.442486 
L 501.520522 363.442486 
L 508.330247 363.442486 
L 515.139972 363.442486 
L 521.949697 363.442486 
L 528.759422 363.442486 
L 535.569147 363.442486 
L 542.378873 363.442486 
L 549.188598 363.442486 
L 555.998323 363.442486 
L 562.808048 363.442486 
L 569.617773 363.442486 
L 576.427498 363.442486 
L 583.237224 363.442486 
L 590.046949 363.442486 
L 596.856674 363.442486 
L 603.666399 363.442486 
L 610.476124 363.442486 
L 617.285849 363.442486 
L 624.095574 363.442486 
L 630.9053 363.442486 
L 637.715025 363.442486 
L 644.52475 363.442486 
L 651.334475 363.442486 
L 658.1442 363.442486 
L 664.953925 363.442486 
L 671.763651 363.442486 
" clip-path="url(#p78744f9af7)" style="fill: none; stroke: #2e86ab; stroke-width: 2.4; stroke-linecap: square"/>
   </g>
   <g id="line2d_27">
    <path d="M 56.845469 363.442486 
L 701.045469 363.442486 
" clip-path="url(#p78744f9af7)" style="fill: none; stroke-dasharray: 3.7,1.6; stroke-dashoffset: 0; stroke: #ff0000"/>
   </g>
   <g id="patch_3">
    <path d="M 56.845469 379.647031 
L 56.845469 23.147031 
" style="fill: none; stroke: #000000; stroke-width: 0.8; stroke-linejoin: miter; stroke-linecap: square"/>
   </g>
   <g id="patch_4">
    <path d="M 701.045469 379.647031 
L 701.045469 23.147031 
" style="fill: none; stroke: #000000; stroke-width: 0.8; stroke-linejoin: miter; stroke-linecap: square"/>
   </g>
   <g id="patch_5">
    <path d="M 56.845469 379.647031 
L 701.045469 379.647031 
" style="fill: none; stroke: #000000; stroke-width: 0.8; stroke-linejoin: miter; stroke-linecap: square"/>
   </g>
   <g id="patch_6">
    <path d="M 56.845469 23.147031 
L 701.045469 23.147031 
" style="fill: none; stroke: #000000; stroke-width: 0.8; stroke-linejoin: miter; stroke-linecap: square"/>
   </g>
   <g id="text_15">
    <!-- K₃ optimization curve  (p=1, cold start γ₀=0.20, β₀=0.20; final r=1.0000) -->
    <g transform="translate(138.184453 17.147031) scale(0.13 -0.13)">
     <defs>
      <path id="DejaVuSerif-4b" d="M 353 0 
L 353 331 
L 947 331 
L 947 4331 
L 353 4331 
L 353 4666 
L 2175 4666 
L 2175 4331 
L 1581 4331 
L 1581 2566 
L 3591 4331 
L 3084 4331 
L 3084 4666 
L 4634 4666 
L 4634 4331 
L 4109 4331 
L 2106 2572 
L 4347 331 
L 4878 331 
L 4878 0 
L 3794 0 
L 1581 2216 
L 1581 331 
L 2175 331 
L 2175 0 
L 353 0 
z
" transform="scale(0.015625)"/>
      <path id="DejaVuSerif-2083" d="M 391 2476 
Q 619 2557 828 2597 
Q 1038 2638 1222 2638 
Q 1653 2638 1886 2469 
Q 2119 2301 2119 1991 
Q 2119 1766 1953 1610 
Q 1788 1454 1491 1401 
Q 1863 1351 2052 1165 
Q 2241 979 2241 666 
Q 2241 310 1967 119 
Q 1694 -71 1184 -71 
Q 959 -71 742 -27 
Q 525 16 313 104 
L 313 635 
L 531 632 
Q 547 401 700 280 
Q 853 160 1141 160 
Q 1434 160 1593 297 
Q 1753 435 1753 691 
Q 1753 982 1593 1130 
Q 1434 1279 1119 1279 
L 953 1279 
L 953 1510 
L 1038 1510 
Q 1341 1510 1495 1625 
Q 1650 1741 1650 1972 
Q 1650 2182 1523 2294 
Q 1397 2407 1159 2407 
Q 903 2407 767 2307 
Q 631 2207 609 2004 
L 391 2004 
L 391 2476 
z
" transform="scale(0.015625)"/>
      <path id="DejaVuSerif-6d" d="M 3316 2675 
Q 3481 3041 3739 3227 
Q 3997 3413 4341 3413 
Q 4863 3413 5119 3089 
Q 5375 2766 5375 2113 
L 5375 331 
L 5894 331 
L 5894 0 
L 4300 0 
L 4300 331 
L 4800 331 
L 4800 2047 
Q 4800 2556 4650 2772 
Q 4500 2988 4153 2988 
Q 3769 2988 3567 2697 
Q 3366 2406 3366 1850 
L 3366 331 
L 3866 331 
L 3866 0 
L 2291 0 
L 2291 331 
L 2791 331 
L 2791 2069 
Q 2791 2566 2641 2777 
Q 2491 2988 2144 2988 
Q 1759 2988 1557 2697 
Q 1356 2406 1356 1850 
L 1356 331 
L 1856 331 
L 1856 0 
L 263 0 
L 263 331 
L 781 331 
L 781 2994 
L 231 2994 
L 231 3322 
L 1356 3322 
L 1356 2731 
Q 1516 3063 1762 3238 
Q 2009 3413 2322 3413 
Q 2709 3413 2968 3220 
Q 3228 3028 3316 2675 
z
" transform="scale(0.015625)"/>
      <path id="DejaVuSerif-7a" d="M 256 0 
L 256 269 
L 2338 2988 
L 691 2988 
L 691 2413 
L 359 2413 
L 359 3322 
L 3078 3322 
L 3078 3053 
L 997 331 
L 2803 331 
L 2803 934 
L 3138 934 
L 3138 0 
L 256 0 
z
" transform="scale(0.015625)"/>
      <path id="DejaVuSerif-75" d="M 2266 3322 
L 3341 3322 
L 3341 331 
L 3884 331 
L 3884 0 
L 2766 0 
L 2766 588 
Q 2606 256 2353 82 
Q 2100 -91 1766 -91 
Q 1213 -91 952 223 
Q 691 538 691 1209 
L 691 2988 
L 172 2988 
L 172 3322 
L 1269 3322 
L 1269 1388 
Q 1269 781 1417 556 
Q 1566 331 1947 331 
Q 2347 331 2556 625 
Q 2766 919 2766 1478 
L 2766 2988 
L 2266 2988 
L 2266 3322 
z
" transform="scale(0.015625)"/>
      <path id="DejaVuSerif-76" d="M 1581 0 
L 359 2988 
L -19 2988 
L -19 3322 
L 1509 3322 
L 1509 2988 
L 978 2988 
L 1913 703 
L 2847 2988 
L 2350 2988 
L 2350 3322 
L 3597 3322 
L 3597 2988 
L 3225 2988 
L 2003 0 
L 1581 0 
z
" transform="scale(0.015625)"/>
      <path id="DejaVuSerif-28" d="M 2041 -997 
Q 1281 -656 893 83 
Q 506 822 506 1931 
Q 506 3044 893 3783 
Q 1281 4522 2041 4863 
L 2041 4556 
Q 1559 4225 1350 3623 
Q 1141 3022 1141 1931 
Q 1141 844 1350 242 
Q 1559 -359 2041 -691 
L 2041 -997 
z
" transform="scale(0.015625)"/>
      <path id="DejaVuSerif-3d" d="M 678 2894 
L 4684 2894 
L 4684 2394 
L 678 2394 
L 678 2894 
z
M 678 1619 
L 4684 1619 
L 4684 1119 
L 678 1119 
L 678 1619 
z
" transform="scale(0.015625)"/>
      <path id="DejaVuSerif-2c" d="M 231 -622 
Q 525 -406 662 -114 
Q 800 178 800 594 
L 800 709 
L 1416 709 
Q 1391 175 1164 -208 
Q 938 -591 481 -872 
L 231 -622 
z
" transform="scale(0.015625)"/>
      <path id="DejaVuSerif-6c" d="M 1313 331 
L 1856 331 
L 1856 0 
L 184 0 
L 184 331 
L 738 331 
L 738 4531 
L 184 4531 
L 184 4863 
L 1313 4863 
L 1313 331 
z
" transform="scale(0.015625)"/>
      <path id="DejaVuSerif-64" d="M 3359 331 
L 3909 331 
L 3909 0 
L 2784 0 
L 2784 519 
Q 2616 206 2355 57 
Q 2094 -91 1709 -91 
Q 1097 -91 708 395 
Q 319 881 319 1663 
Q 319 2444 706 2928 
Q 1094 3413 1709 3413 
Q 2094 3413 2355 3264 
Q 2616 3116 2784 2803 
L 2784 4531 
L 2241 4531 
L 2241 4863 
L 3359 4863 
L 3359 331 
z
M 2784 1497 
L 2784 1825 
Q 2784 2422 2554 2737 
Q 2325 3053 1888 3053 
Q 1444 3053 1217 2703 
Q 991 2353 991 1663 
Q 991 975 1217 622 
Q 1444 269 1888 269 
Q 2325 269 2554 583 
Q 2784 897 2784 1497 
z
" transform="scale(0.015625)"/>
      <path id="DejaVuSerif-73" d="M 359 184 
L 359 959 
L 691 959 
Q 703 588 923 403 
Q 1144 219 1575 219 
Q 1963 219 2166 364 
Q 2369 509 2369 788 
Q 2369 1006 2220 1140 
Q 2072 1275 1594 1428 
L 1178 1569 
Q 750 1706 558 1912 
Q 366 2119 366 2438 
Q 366 2894 700 3153 
Q 1034 3413 1625 3413 
Q 1888 3413 2178 3344 
Q 2469 3275 2778 3144 
L 2778 2419 
L 2447 2419 
Q 2434 2741 2221 2922 
Q 2009 3103 1644 3103 
Q 1281 3103 1095 2975 
Q 909 2847 909 2591 
Q 909 2381 1050 2254 
Q 1191 2128 1613 1997 
L 2069 1856 
Q 2541 1709 2748 1489 
Q 2956 1269 2956 922 
Q 2956 450 2595 179 
Q 2234 -91 1600 -91 
Q 1278 -91 972 -22 
Q 666 47 359 184 
z
" transform="scale(0.015625)"/>
      <path id="DejaVuSerif-3b3" d="M 2225 188 
Q 2419 -725 2238 -1063 
Q 2091 -1331 1875 -1338 
Q 1544 -1347 1400 -1025 
Q 1238 -663 1672 50 
L 781 2988 
L 231 2988 
L 231 3322 
L 1294 3322 
L 2103 622 
Q 2813 1575 2897 2231 
Q 2938 2541 2859 2750 
Q 2734 3084 2584 3138 
L 2584 3322 
L 2934 3322 
Q 3297 3103 3384 2919 
Q 3509 2656 3509 2491 
Q 3509 2188 3188 1588 
Q 3063 1353 2225 188 
z
" transform="scale(0.015625)"/>
      <path id="DejaVuSerif-2080" d="M 784 394 
Q 950 101 1281 101 
Q 1613 101 1778 394 
Q 1944 688 1944 1285 
Q 1944 1879 1778 2172 
Q 1613 2466 1281 2466 
Q 950 2466 784 2172 
Q 619 1879 619 1285 
Q 619 688 784 394 
z
M 2106 285 
Q 1809 -71 1281 -71 
Q 753 -71 456 285 
Q 163 641 163 1285 
Q 163 1926 456 2282 
Q 753 2638 1281 2638 
Q 1809 2638 2106 2282 
Q 2400 1926 2400 1285 
Q 2400 641 2106 285 
z
" transform="scale(0.015625)"/>
      <path id="DejaVuSerif-3b2" d="M 978 403 
Q 1228 219 1688 219 
Q 2166 219 2442 495 
Q 2719 772 2719 1253 
Q 2719 1906 2434 2188 
Q 2144 2478 1600 2478 
L 1303 2478 
L 1303 2813 
L 1459 2813 
Q 1856 2813 2131 3038 
Q 2356 3228 2356 3725 
Q 2356 3941 2209 4188 
Q 1969 4597 1681 4588 
Q 978 4566 978 3319 
L 978 403 
z
M 403 -1331 
L 403 3319 
Q 403 4628 1106 4803 
Q 1478 4897 1734 4897 
Q 2319 4897 2694 4438 
Q 2991 4075 2991 3763 
Q 2991 3319 2772 3056 
Q 2556 2797 2169 2672 
Q 2738 2591 3063 2250 
Q 3378 1913 3378 1259 
Q 3378 606 2939 257 
Q 2500 -91 1675 -91 
Q 1169 -91 978 -19 
L 978 -1331 
L 403 -1331 
z
" transform="scale(0.015625)"/>
      <path id="DejaVuSerif-3b" d="M 231 -622 
Q 525 -406 662 -114 
Q 800 178 800 594 
L 800 709 
L 1416 709 
Q 1391 175 1164 -208 
Q 938 -591 481 -872 
L 231 -622 
z
M 678 2363 
Q 678 2538 798 2658 
Q 919 2778 1094 2778 
Q 1269 2778 1389 2656 
Q 1509 2534 1509 2363 
Q 1509 2188 1389 2067 
Q 1269 1947 1094 1947 
Q 919 1947 798 2067 
Q 678 2188 678 2363 
z
" transform="scale(0.015625)"/>
      <path id="DejaVuSerif-66" d="M 2753 4078 
L 2450 4078 
Q 2447 4313 2317 4434 
Q 2188 4556 1941 4556 
Q 1619 4556 1487 4379 
Q 1356 4203 1356 3750 
L 1356 3322 
L 2284 3322 
L 2284 2988 
L 1356 2988 
L 1356 331 
L 2094 331 
L 2094 0 
L 231 0 
L 231 331 
L 781 331 
L 781 2988 
L 231 2988 
L 231 3322 
L 781 3322 
L 781 3738 
Q 781 4294 1070 4578 
Q 1359 4863 1919 4863 
Q 2128 4863 2337 4825 
Q 2547 4788 2753 4709 
L 2753 4078 
z
" transform="scale(0.015625)"/>
      <path id="DejaVuSerif-29" d="M 453 -997 
L 453 -691 
Q 934 -359 1145 242 
Q 1356 844 1356 1931 
Q 1356 3022 1145 3623 
Q 934 4225 453 4556 
L 453 4863 
Q 1216 4522 1603 3783 
Q 1991 3044 1991 1931 
Q 1991 822 1603 83 
Q 1216 -656 453 -997 
z
" transform="scale(0.015625)"/>
     </defs>
     <use xlink:href="#DejaVuSerif-4b"/>
     <use xlink:href="#DejaVuSerif-2083" transform="translate(74.707031 0)"/>
     <use xlink:href="#DejaVuSerif-20" transform="translate(114.794922 0)"/>
     <use xlink:href="#DejaVuSerif-6f" transform="translate(146.582031 0)"/>
     <use xlink:href="#DejaVuSerif-70" transform="translate(206.787109 0)"/>
     <use xlink:href="#DejaVuSerif-74" transform="translate(270.800781 0)"/>
     <use xlink:href="#DejaVuSerif-69" transform="translate(310.986328 0)"/>
     <use xlink:href="#DejaVuSerif-6d" transform="translate(342.96875 0)"/>
     <use xlink:href="#DejaVuSerif-69" transform="translate(437.792969 0)"/>
     <use xlink:href="#DejaVuSerif-7a" transform="translate(469.775391 0)"/>
     <use xlink:href="#DejaVuSerif-61" transform="translate(522.460938 0)"/>
     <use xlink:href="#DejaVuSerif-74" transform="translate(582.080078 0)"/>
     <use xlink:href="#DejaVuSerif-69" transform="translate(622.265625 0)"/>
     <use xlink:href="#DejaVuSerif-6f" transform="translate(654.248047 0)"/>
     <use xlink:href="#DejaVuSerif-6e" transform="translate(714.453125 0)"/>
     <use xlink:href="#DejaVuSerif-20" transform="translate(778.857422 0)"/>
     <use xlink:href="#DejaVuSerif-63" transform="translate(810.644531 0)"/>
     <use xlink:href="#DejaVuSerif-75" transform="translate(866.650391 0)"/>
     <use xlink:href="#DejaVuSerif-72" transform="translate(931.054688 0)"/>
     <use xlink:href="#DejaVuSerif-76" transform="translate(978.857422 0)"/>
     <use xlink:href="#DejaVuSerif-65" transform="translate(1035.351562 0)"/>
     <use xlink:href="#DejaVuSerif-20" transform="translate(1094.53125 0)"/>
     <use xlink:href="#DejaVuSerif-20" transform="translate(1126.318359 0)"/>
     <use xlink:href="#DejaVuSerif-28" transform="translate(1158.105469 0)"/>
     <use xlink:href="#DejaVuSerif-70" transform="translate(1197.119141 0)"/>
     <use xlink:href="#DejaVuSerif-3d" transform="translate(1261.132812 0)"/>
     <use xlink:href="#DejaVuSerif-31" transform="translate(1344.921875 0)"/>
     <use xlink:href="#DejaVuSerif-2c" transform="translate(1408.544922 0)"/>
     <use xlink:href="#DejaVuSerif-20" transform="translate(1440.332031 0)"/>
     <use xlink:href="#DejaVuSerif-63" transform="translate(1472.119141 0)"/>
     <use xlink:href="#DejaVuSerif-6f" transform="translate(1528.125 0)"/>
     <use xlink:href="#DejaVuSerif-6c" transform="translate(1588.330078 0)"/>
     <use xlink:href="#DejaVuSerif-64" transform="translate(1620.3125 0)"/>
     <use xlink:href="#DejaVuSerif-20" transform="translate(1684.326172 0)"/>
     <use xlink:href="#DejaVuSerif-73" transform="translate(1716.113281 0)"/>
     <use xlink:href="#DejaVuSerif-74" transform="translate(1767.431641 0)"/>
     <use xlink:href="#DejaVuSerif-61" transform="translate(1807.617188 0)"/>
     <use xlink:href="#DejaVuSerif-72" transform="translate(1867.236328 0)"/>
     <use xlink:href="#DejaVuSerif-74" transform="translate(1915.039062 0)"/>
     <use xlink:href="#DejaVuSerif-20" transform="translate(1955.224609 0)"/>
     <use xlink:href="#DejaVuSerif-3b3" transform="translate(1987.011719 0)"/>
     <use xlink:href="#DejaVuSerif-2080" transform="translate(2046.777344 0)"/>
     <use xlink:href="#DejaVuSerif-3d" transform="translate(2086.865234 0)"/>
     <use xlink:href="#DejaVuSerif-30" transform="translate(2170.654297 0)"/>
     <use xlink:href="#DejaVuSerif-2e" transform="translate(2234.277344 0)"/>
     <use xlink:href="#DejaVuSerif-32" transform="translate(2266.064453 0)"/>
     <use xlink:href="#DejaVuSerif-30" transform="translate(2329.6875 0)"/>
     <use xlink:href="#DejaVuSerif-2c" transform="translate(2393.310547 0)"/>
     <use xlink:href="#DejaVuSerif-20" transform="translate(2425.097656 0)"/>
     <use xlink:href="#DejaVuSerif-3b2" transform="translate(2456.884766 0)"/>
     <use xlink:href="#DejaVuSerif-2080" transform="translate(2514.697266 0)"/>
     <use xlink:href="#DejaVuSerif-3d" transform="translate(2554.785156 0)"/>
     <use xlink:href="#DejaVuSerif-30" transform="translate(2638.574219 0)"/>
     <use xlink:href="#DejaVuSerif-2e" transform="translate(2702.197266 0)"/>
     <use xlink:href="#DejaVuSerif-32" transform="translate(2733.984375 0)"/>
     <use xlink:href="#DejaVuSerif-30" transform="translate(2797.607422 0)"/>
     <use xlink:href="#DejaVuSerif-3b" transform="translate(2861.230469 0)"/>
     <use xlink:href="#DejaVuSerif-20" transform="translate(2894.921875 0)"/>
     <use xlink:href="#DejaVuSerif-66" transform="translate(2926.708984 0)"/>
     <use xlink:href="#DejaVuSerif-69" transform="translate(2963.720703 0)"/>
     <use xlink:href="#DejaVuSerif-6e" transform="translate(2995.703125 0)"/>
     <use xlink:href="#DejaVuSerif-61" transform="translate(3060.107422 0)"/>
     <use xlink:href="#DejaVuSerif-6c" transform="translate(3119.726562 0)"/>
     <use xlink:href="#DejaVuSerif-20" transform="translate(3151.708984 0)"/>
     <use xlink:href="#DejaVuSerif-72" transform="translate(3183.496094 0)"/>
     <use xlink:href="#DejaVuSerif-3d" transform="translate(3231.298828 0)"/>
     <use xlink:href="#DejaVuSerif-31" transform="translate(3315.087891 0)"/>
     <use xlink:href="#DejaVuSerif-2e" transform="translate(3378.710938 0)"/>
     <use xlink:href="#DejaVuSerif-30" transform="translate(3410.498047 0)"/>
     <use xlink:href="#DejaVuSerif-30" transform="translate(3474.121094 0)"/>
     <use xlink:href="#DejaVuSerif-30" transform="translate(3537.744141 0)"/>
     <use xlink:href="#DejaVuSerif-30" transform="translate(3601.367188 0)"/>
     <use xlink:href="#DejaVuSerif-29" transform="translate(3664.990234 0)"/>
    </g>
   </g>
   <g id="legend_1">
    <g id="patch_7">
     <path d="M 543.967188 80.690781 
L 693.345469 80.690781 
Q 695.545469 80.690781 695.545469 78.490781 
L 695.545469 30.847031 
Q 695.545469 28.647031 693.345469 28.647031 
L 543.967188 28.647031 
Q 541.767187 28.647031 541.767187 30.847031 
L 541.767187 78.490781 
Q 541.767187 80.690781 543.967188 80.690781 
z
" style="fill: #ffffff; opacity: 0.8; stroke: #cccccc; stroke-linejoin: miter"/>
    </g>
    <g id="line2d_28">
     <path d="M 546.167187 37.555312 
L 557.167187 37.555312 
L 568.167187 37.555312 
" style="fill: none; stroke: #8c8c8c; stroke-opacity: 0.9; stroke-width: 1.2; stroke-linecap: square"/>
     <g>
      <use xlink:href="#ma01023ae9f" x="557.167187" y="37.555312" style="fill: #8c8c8c; fill-opacity: 0.9; stroke: #8c8c8c; stroke-opacity: 0.9"/>
     </g>
    </g>
    <g id="text_16">
     <!-- raw COBYLA probes -->
     <g transform="translate(576.967187 41.405312) scale(0.11 -0.11)">
      <defs>
       <path id="DejaVuSerif-77" d="M 3072 3322 
L 3922 728 
L 4672 2988 
L 4191 2988 
L 4191 3322 
L 5394 3322 
L 5394 2988 
L 5025 2988 
L 4038 0 
L 3559 0 
L 2741 2484 
L 1919 0 
L 1459 0 
L 475 2988 
L 103 2988 
L 103 3322 
L 1606 3322 
L 1606 2988 
L 1069 2988 
L 1813 728 
L 2669 3322 
L 3072 3322 
z
" transform="scale(0.015625)"/>
       <path id="DejaVuSerif-62" d="M 738 331 
L 738 4531 
L 184 4531 
L 184 4863 
L 1313 4863 
L 1313 2803 
Q 1481 3116 1742 3264 
Q 2003 3413 2388 3413 
Q 3000 3413 3387 2928 
Q 3775 2444 3775 1663 
Q 3775 881 3387 395 
Q 3000 -91 2388 -91 
Q 2003 -91 1742 57 
Q 1481 206 1313 519 
L 1313 0 
L 184 0 
L 184 331 
L 738 331 
z
M 1313 1497 
Q 1313 897 1542 583 
Q 1772 269 2209 269 
Q 2650 269 2876 622 
Q 3103 975 3103 1663 
Q 3103 2353 2876 2703 
Q 2650 3053 2209 3053 
Q 1772 3053 1542 2737 
Q 1313 2422 1313 1825 
L 1313 1497 
z
" transform="scale(0.015625)"/>
      </defs>
      <use xlink:href="#DejaVuSerif-72"/>
      <use xlink:href="#DejaVuSerif-61" transform="translate(47.802734 0)"/>
      <use xlink:href="#DejaVuSerif-77" transform="translate(107.421875 0)"/>
      <use xlink:href="#DejaVuSerif-20" transform="translate(193.017578 0)"/>
      <use xlink:href="#DejaVuSerif-43" transform="translate(224.804688 0)"/>
      <use xlink:href="#DejaVuSerif-4f" transform="translate(301.318359 0)"/>
      <use xlink:href="#DejaVuSerif-42" transform="translate(383.300781 0)"/>
      <use xlink:href="#DejaVuSerif-59" transform="translate(455.037109 0)"/>
      <use xlink:href="#DejaVuSerif-4c" transform="translate(521.052734 0)"/>
      <use xlink:href="#DejaVuSerif-41" transform="translate(587.458984 0)"/>
      <use xlink:href="#DejaVuSerif-20" transform="translate(659.675781 0)"/>
      <use xlink:href="#DejaVuSerif-70" transform="translate(691.462891 0)"/>
      <use xlink:href="#DejaVuSerif-72" transform="translate(755.476562 0)"/>
      <use xlink:href="#DejaVuSerif-6f" transform="translate(803.279297 0)"/>
      <use xlink:href="#DejaVuSerif-62" transform="translate(863.484375 0)"/>
      <use xlink:href="#DejaVuSerif-65" transform="translate(927.498047 0)"/>
      <use xlink:href="#DejaVuSerif-73" transform="translate(986.677734 0)"/>
     </g>
    </g>
    <g id="line2d_29">
     <path d="M 546.167187 53.70125 
L 557.167187 53.70125 
L 568.167187 53.70125 
" style="fill: none; stroke: #2e86ab; stroke-width: 2.4; stroke-linecap: square"/>
    </g>
    <g id="text_17">
     <!-- best-so-far ⟨H_C⟩ -->
     <g transform="translate(576.967187 57.55125) scale(0.11 -0.11)">
      <defs>
       <path id="DejaVuSerif-2d" d="M 281 1959 
L 1881 1959 
L 1881 1472 
L 281 1472 
L 281 1959 
z
" transform="scale(0.015625)"/>
      </defs>
      <use xlink:href="#DejaVuSerif-62"/>
      <use xlink:href="#DejaVuSerif-65" transform="translate(64.013672 0)"/>
      <use xlink:href="#DejaVuSerif-73" transform="translate(123.193359 0)"/>
      <use xlink:href="#DejaVuSerif-74" transform="translate(174.511719 0)"/>
      <use xlink:href="#DejaVuSerif-2d" transform="translate(214.697266 0)"/>
      <use xlink:href="#DejaVuSerif-73" transform="translate(248.486328 0)"/>
      <use xlink:href="#DejaVuSerif-6f" transform="translate(299.804688 0)"/>
      <use xlink:href="#DejaVuSerif-2d" transform="translate(360.009766 0)"/>
      <use xlink:href="#DejaVuSerif-66" transform="translate(393.798828 0)"/>
      <use xlink:href="#DejaVuSerif-61" transform="translate(430.810547 0)"/>
      <use xlink:href="#DejaVuSerif-72" transform="translate(490.429688 0)"/>
      <use xlink:href="#DejaVuSerif-20" transform="translate(538.232422 0)"/>
      <use xlink:href="#DejaVuSerif-27e8" transform="translate(570.019531 0)"/>
      <use xlink:href="#DejaVuSerif-48" transform="translate(609.033203 0)"/>
      <use xlink:href="#DejaVuSerif-5f" transform="translate(696.240234 0)"/>
      <use xlink:href="#DejaVuSerif-43" transform="translate(746.240234 0)"/>
      <use xlink:href="#DejaVuSerif-27e9" transform="translate(822.753906 0)"/>
     </g>
    </g>
    <g id="line2d_30">
     <path d="M 546.167187 70.153125 
L 557.167187 70.153125 
L 568.167187 70.153125 
" style="fill: none; stroke-dasharray: 3.7,1.6; stroke-dashoffset: 0; stroke: #ff0000"/>
    </g>
    <g id="text_18">
     <!-- optimum −C* = −2 -->
     <g transform="translate(576.967187 74.003125) scale(0.11 -0.11)">
      <defs>
       <path id="DejaVuSerif-2a" d="M 3097 3866 
L 1875 3297 
L 3097 2719 
L 2859 2350 
L 1772 3028 
L 1813 1838 
L 1388 1838 
L 1428 3028 
L 341 2350 
L 103 2719 
L 1325 3291 
L 103 3866 
L 341 4238 
L 1428 3559 
L 1388 4750 
L 1813 4750 
L 1772 3559 
L 2859 4238 
L 3097 3866 
z
" transform="scale(0.015625)"/>
      </defs>
      <use xlink:href="#DejaVuSerif-6f"/>
      <use xlink:href="#DejaVuSerif-70" transform="translate(60.205078 0)"/>
      <use xlink:href="#DejaVuSerif-74" transform="translate(124.21875 0)"/>
      <use xlink:href="#DejaVuSerif-69" transform="translate(164.404297 0)"/>
      <use xlink:href="#DejaVuSerif-6d" transform="translate(196.386719 0)"/>
      <use xlink:href="#DejaVuSerif-75" transform="translate(291.210938 0)"/>
      <use xlink:href="#DejaVuSerif-6d" transform="translate(355.615234 0)"/>
      <use xlink:href="#DejaVuSerif-20" transform="translate(450.439453 0)"/>
      <use xlink:href="#DejaVuSerif-2212" transform="translate(482.226562 0)"/>
      <use xlink:href="#DejaVuSerif-43" transform="translate(566.015625 0)"/>
      <use xlink:href="#DejaVuSerif-2a" transform="translate(642.529297 0)"/>
      <use xlink:href="#DejaVuSerif-20" transform="translate(692.529297 0)"/>
      <use xlink:href="#DejaVuSerif-3d" transform="translate(724.316406 0)"/>
      <use xlink:href="#DejaVuSerif-20" transform="translate(808.105469 0)"/>
      <use xlink:href="#DejaVuSerif-2212" transform="translate(839.892578 0)"/>
      <use xlink:href="#DejaVuSerif-32" transform="translate(923.681641 0)"/>
     </g>
    </g>
   </g>
  </g>
 </g>
 <defs>
  <clipPath id="p78744f9af7">
   <rect x="56.845469" y="23.147031" width="644.2" height="356.5"/>
  </clipPath>
 </defs>
</svg>
